<svg xmlns="http://www.w3.org/2000/svg" viewBox="0 0 6000 1200"><path fill="#595959" d="M0 1105h6000v95H0z"/><path fill="#fff" d="M0 505.7h6000V1105H0z"/><path fill="#00458b" d="M5379.6 265.5h12.5v240.2h-12.5z"/><path fill="#00458b" d="M5203.1 423.5h365.6V436h-365.6z"/><path fill="#00458b" d="M5259.5 366.4h12.5v139.2h-12.5zm240.1 0h12.5v139.2h-12.5zm-600.3-100.9h12.5v240.2h-12.5z"/><path fill="#00458b" d="M4721.8 423.5h367.6V436h-367.6z"/><path fill="#00458b" d="M4779.2 366.4h12.5v139.2h-12.5zm240.1 0h12.5v139.2h-12.5z"/><path fill="#fff" d="m5385.9 227.2-240.2 240.2-240.2-240.2-240.1 240.2v38.3l240.1-240.2 240.2 240.2 240.2-240.2L5626 505.7v-38.3l-240.1-240.2z"/><path fill="#00458b" d="M4665.4 505.7H5626V727h-960.6z"/><path fill="#0d2740" d="M4665.4 783.4H5626V1105h-960.6z"/><path fill="#123559" d="M4727.5 783.4h18.8V1105h-18.8zm817.6 0h18.8V1105h-18.8zm-408.8 0h18.8V1105h-18.8z"/><path fill="#0d2740" d="M5684.6 783.4H4606.7l-56.4-56.5h1190.8l-56.5 56.5z"/><path fill="#123559" d="M5645 783.4h-998.6l-32.6-56.5h1063.7l-32.5 56.5z"/><path fill="#00458b" d="M3732.6 407.8h359.1V1105h-359.1z"/><path fill="#fff" d="M3781.3 359.1h261.8v48.7h-261.8z"/><path fill="#00458b" d="M3732.6 0h359.1v359.1h-359.1z"/><path fill="#fff" d="M4058.1 323.6V35.5H3767v1.8c160 0 289.6 127.5 289.6 284.7v1.6Zm-253.2-76.7h36.7l-39.1 76.4h-36.2l38.6-76.4zm61.2-25.3h38.2l-22.6 41.5 22.1-16.2h45.2l-36.4 27.3h21.1l-24.8 49.1h-37l16.3-32.5h-19.7l-16.5 32.5h-37.7l51.8-101.7z"/><circle cx="3826.9" cy="207" r="33" fill="#fff"/><path fill="#fff" d="m3998.3 259.8-25 50.2h-13.5l25.8-50.2Zm41.7-13h-82l-37.6 76.5h82Z"/><path fill="#c8c8c8" d="M3229.4 554.3H4595v102.1H3229.4z"/><path fill="#00458b" d="M3243.4 642.6v-72.4h46.9a30.7 30.7 0 0 1 18.3 4.5 15.7 15.7 0 0 1 6.3 13.6 17 17 0 0 1-2.6 9.3 17.4 17.4 0 0 1-7.3 6.3 18 18 0 0 1 9.5 6.6 18.8 18.8 0 0 1 3.2 11.3 19.4 19.4 0 0 1-6.3 15.1 25.6 25.6 0 0 1-17.3 5.5Zm39.7-58.3h-21.6v14.9h21.5a20.7 20.7 0 0 0 10-1.6 7.3 7.3 0 0 0 0-11.6 20.3 20.3 0 0 0-10-1.7m-21.4 43.9h24.2a19.8 19.8 0 0 0 10-1.8 7 7 0 0 0 2.6-6.3 7.1 7.1 0 0 0-3-6.2 18 18 0 0 0-9.6-2h-24.3Zm84.2-44.9h-16.6v-13.1h16.6Zm-16.6 59.5v-54.2h16.6v54Zm32.7-.2v-72.4h16.7V609l24.1-20.4h21.5l-26.7 22.1 28.9 31.9h-22.5l-18.8-21.6-6.3 5.2v16.4h-16.9zm130.5-17.5a27.2 27.2 0 0 1-11.3 14.7 37.6 37.6 0 0 1-20 5 34.4 34.4 0 0 1-23.8-7.8 30 30 0 0 1 0-42.3 34.7 34.7 0 0 1 23.8-7.8 33.5 33.5 0 0 1 24 8 30.2 30.2 0 0 1 8.5 22.8v2.3h-46.4a12.5 12.5 0 0 0 3.8 9.4 13.7 13.7 0 0 0 9.8 3.5 16 16 0 0 0 8.2-2 11.7 11.7 0 0 0 5-5.8Zm-44.8-16.4h27.2a11.2 11.2 0 0 0-4-8 15 15 0 0 0-9.5-2.8 14.5 14.5 0 0 0-9.5 3 10.8 10.8 0 0 0-4.2 7.8m151.4 33.9-4.7-5a36.3 36.3 0 0 1-11.3 5.2 54.6 54.6 0 0 1-14.3 1.8 34.9 34.9 0 0 1-21.4-6.3 18.8 18.8 0 0 1-3.9-28.1 41.5 41.5 0 0 1 14.4-10 19.6 19.6 0 0 1-5.5-6.3 16.7 16.7 0 0 1-1.9-7.8 13.5 13.5 0 0 1 6.3-11.4 26.2 26.2 0 0 1 15.8-4.4 27.3 27.3 0 0 1 16.3 4.4 13.7 13.7 0 0 1 6.3 11.8 16 16 0 0 1-3 9.6 28.4 28.4 0 0 1-9.4 7.6l12.5 12.5a10 10 0 0 0 1.7-2.7 12 12 0 0 0 .9-3h17.6a46.2 46.2 0 0 1-3.6 9.8 32.5 32.5 0 0 1-5 7.5l15.1 15.1Zm-15-15.4-16-16.4a23.7 23.7 0 0 0-7.6 4.8 8 8 0 0 0-2.6 5.5 8.4 8.4 0 0 0 3.7 7 15.9 15.9 0 0 0 9.7 2.7 26.2 26.2 0 0 0 6.6-.9 25 25 0 0 0 6.1-2.7m-12-33.6a14.6 14.6 0 0 0 5.2-2.9 5.2 5.2 0 0 0 1.6-3.7 4 4 0 0 0-1.4-3.4 6.3 6.3 0 0 0-4-1.2 6.9 6.9 0 0 0-4.2 1.3 3.6 3.6 0 0 0-1.7 3 5.6 5.6 0 0 0 1.1 3.2 19.5 19.5 0 0 0 3.4 3.5Zm92.4 49v-72.4h23.8l23.3 51.9 24-51.9h23.3v72.4h-17.5v-48.3l-22.4 48.3h-15.2l-21.8-49.1v49.1h-17.5zm105.3-27a26.2 26.2 0 0 1 9-21.2 44 44 0 0 1 50.3 0 29.1 29.1 0 0 1 1.2 41.2l-1.2 1.2a44 44 0 0 1-50.2 0 26.3 26.3 0 0 1-9.1-21.2m18.1 0a15 15 0 0 0 4.4 11.4 18 18 0 0 0 23.3 0 15.6 15.6 0 0 0 4.4-11.6 15.2 15.2 0 0 0-4.4-11.3 16 16 0 0 0-11.6-4.3 15.7 15.7 0 0 0-11.7 4.3 15 15 0 0 0-4.2 11.6Zm121.3-27v54h-16.7v-8a30.7 30.7 0 0 1-9.8 7 27.8 27.8 0 0 1-11.5 2.4 30.2 30.2 0 0 1-12-2.2 17.8 17.8 0 0 1-7.9-6.2 19.2 19.2 0 0 1-2.5-6.3 64.3 64.3 0 0 1-.7-11v-29.7h16.8v26a20.8 20.8 0 0 0 2.6 12.6 10.9 10.9 0 0 0 9.1 3.4 15.7 15.7 0 0 0 11.5-4 14.7 14.7 0 0 0 4.2-11.2v-26.8Zm13.5 54v-54h16.8v8.1a29.7 29.7 0 0 1 9.7-7.1 27 27 0 0 1 11.3-2.5 29.3 29.3 0 0 1 12 2.3 16.8 16.8 0 0 1 10.5 12.7 56.7 56.7 0 0 1 .8 11v29.7h-16.8v-26.4a21.2 21.2 0 0 0-2.6-12.5 10.8 10.8 0 0 0-9-3.4 15.7 15.7 0 0 0-11.6 4 15 15 0 0 0-4.2 11.4v26.6Zm78.7-68.3h16.8v14.3h12.5V601H4018v23a11.8 11.8 0 0 0 1 6.2c.5.7 2 1 4.5 1h7v13h-11.3a23.6 23.6 0 0 1-13.8-3 11.5 11.5 0 0 1-4.2-10v-30h-7.9v-12.5h7.9Zm98.9 59.7a16.3 16.3 0 0 0 .6 4.8 5.2 5.2 0 0 0 2 2.7v1.1h-18.5l-.8-5.9a27.9 27.9 0 0 1-9.9 6 37.6 37.6 0 0 1-12.5 1.9 28.6 28.6 0 0 1-17.6-4.8 15.6 15.6 0 0 1-6.2-13.2 12.5 12.5 0 0 1 5.8-11.5 44.6 44.6 0 0 1 19.8-5l5.2-.3c10.8-.8 16.2-2.8 16.2-6.3a4.9 4.9 0 0 0-3.1-4.6 22.4 22.4 0 0 0-9.4-1.5 15.8 15.8 0 0 0-9.2 2.2 8.2 8.2 0 0 0-3 6.8H4042a16.1 16.1 0 0 1 7.9-14.6 42.3 42.3 0 0 1 22.8-5 50.5 50.5 0 0 1 13 1.5 26.4 26.4 0 0 1 9.5 4.2 11.8 11.8 0 0 1 4.1 5.6 33.3 33.3 0 0 1 .8 10.3Zm-16.3-17.4a35.4 35.4 0 0 1-12 2.6h-1.6a39.4 39.4 0 0 0-12 2.4 4.6 4.6 0 0 0-2.5 4.4 6.3 6.3 0 0 0 2.5 5 10.5 10.5 0 0 0 6.2 2 21.8 21.8 0 0 0 13.8-4.2 12.5 12.5 0 0 0 5.4-10.5v-1.2l.2-.5m47.9-33.3H4115v-13.1h16.7Zm-16.7 59.5v-54.2h16.7v54Zm31.4-.2v-54h16.8v8.1a30 30 0 0 1 9.8-7.1 26.5 26.5 0 0 1 11.2-2.5 29.6 29.6 0 0 1 11.9 2.5 17.6 17.6 0 0 1 7.9 6.3 15.6 15.6 0 0 1 2.4 6.2 56.9 56.9 0 0 1 .8 11v29.7h-16.8v-26.4a21.2 21.2 0 0 0-2.6-12.5 10.8 10.8 0 0 0-9-3.4 16 16 0 0 0-11.6 4 15.3 15.3 0 0 0-4.2 11.4v26.6Zm125.7 0-23.1-72.4h18.9l14.4 48.8 17-48.8h17.9l16.9 48.8 14.8-48.8h18.8l-23.5 72.4h-18.4l-17.4-52.7-18.2 52.7h-18.1zm91.5-27a26.2 26.2 0 0 1 9.1-21.2 43.9 43.9 0 0 1 50.2 0 29.1 29.1 0 0 1 1.3 41.2l-1.3 1.2a43.9 43.9 0 0 1-50.2 0 26.3 26.3 0 0 1-9-21.2m18 0a15 15 0 0 0 4.4 11.4 18 18 0 0 0 23.3 0 15.6 15.6 0 0 0 4.4-11.6 15 15 0 0 0-4.4-11.3 16 16 0 0 0-11.6-4.3 15.7 15.7 0 0 0-11.7 4.3 15 15 0 0 0-4.3 11.6Zm77 27H4442v-54h16.7v7.3a28.7 28.7 0 0 1 7.9-6.9 17.4 17.4 0 0 1 8.5-2.2h4.7V601h-5.3a14.9 14.9 0 0 0-11.6 4.6 18.2 18.2 0 0 0-4.2 12.5Zm28.9-72.4h16.7v72.4h-16.7zm77.7 24.8v-24.8h16.7v72.4h-16.7v-5a21.8 21.8 0 0 1-8.2 5.2 34 34 0 0 1-11 1.7 31.4 31.4 0 0 1-22-7.9 28.8 28.8 0 0 1-.2-40.7l.2-.2a32 32 0 0 1 22.3-7.8 30.7 30.7 0 0 1 11 1.7 19.7 19.7 0 0 1 7.9 5.3m0 21.3a14.6 14.6 0 0 0-4.4-11 15.6 15.6 0 0 0-11.4-4.3 16 16 0 0 0-11.6 4.2 14.9 14.9 0 0 0-4.3 11.3 15 15 0 0 0 4.3 11.2 16.1 16.1 0 0 0 11.6 4.1 15.6 15.6 0 0 0 11.4-4.2 15 15 0 0 0 4.4-11.2M2912.6 265.5h12.5v240.2h-12.5z"/><path fill="#00458b" d="M2736.1 423.5h365.6V436h-365.6z"/><path fill="#00458b" d="M2792.5 366.4h12.5v139.2h-12.5zm240.2 0h12.5v139.2h-12.5zm-600.4-100.9h12.5v240.2h-12.5z"/><path fill="#00458b" d="M2254.8 423.5h367.6V436h-367.6z"/><path fill="#00458b" d="M2312.2 366.4h12.5v139.2h-12.5zm240.1 0h12.5v139.2h-12.5z"/><path fill="#fff" d="m2918.9 227.2-240.2 240.2-240.1-240.2-240.2 240.2v38.3l240.2-240.2 240.1 240.2 240.2-240.2 240.2 240.2v-38.3l-240.2-240.2z"/><path fill="#00458b" d="M2198.4 505.7H3159V727h-960.6z"/><path fill="#0d2740" d="M2198.4 783.4H3159V1105h-960.6z"/><path fill="#123559" d="M2260.6 783.4h18.8V1105h-18.8zm817.5 0h18.8V1105h-18.8zm-408.8 0h18.8V1105h-18.8z"/><path fill="#0d2740" d="M3217.6 783.4H2139.8l-56.5-56.5h1190.8l-56.5 56.5z"/><path fill="#123559" d="M3178 783.4h-998.5l-32.7-56.5h1063.8l-32.6 56.5z"/><path fill="#00458b" d="M2016.6 573.8a28 28 0 0 0-18.2-7.7 338.8 338.8 0 0 0-45.1-2.4h-8.6a409.2 409.2 0 0 0-48.3 2.4 110.4 110.4 0 0 0-30 7.2 91.6 91.6 0 0 0-23.3 14.2 195 195 0 0 0-24.5 25.4 214.9 214.9 0 0 0-17.8 24.6h-129.4c-7.8 0-7.8-5.9-6.3-9s3.6-5.6 6.3-9.6h123c4.2-5 4.3-5.5 5.7-6.9a435 435 0 0 0 14.5-20 29.4 29.4 0 0 0 4.6-13.6c0-6.3-6.8-11-20.5-12.6a385.4 385.4 0 0 0-42.4-1.8c-10.9 0-21 .5-29.6 1h-.8a280 280 0 0 0-23.7 2.1A93 93 0 0 0 1648 594a401.7 401.7 0 0 0-18.2 20.5 142.6 142.6 0 0 0-16.8 23.2h-77.3c-8.7 0-10-.9-9.5-4.6a11.7 11.7 0 0 1 2.3-4l30-37.6h73.7l20.9-25h-73.7l18.2-21.9h-46.4l-17.4 21H1377c-6.7 0-41.2-.6-43.5 0l-20.3 24c16.4 0 110-1 112.3 1.2a1.8 1.8 0 0 1 0 1.6l-10 12H1394c-4 0-61.7.6-68.7 1a57.6 57.6 0 0 0-37.6 11.8l-1.3 1a78.7 78.7 0 0 0-16.9 16c-8.7 10-10.1 16.7-9.1 21.3 1.8 7.7 8.8 10 26 10.5h1.3c11.8 0 81.2.9 107.1-.5 11.5 0 28.4-11 34.8-19.3 4-5.3 25-31.4 43.9-54.5h38.1l-38.2 48a18.8 18.8 0 0 0-3.7 7.2 10.2 10.2 0 0 0 .4 8.2 9.8 9.8 0 0 0 2.8 3.1l.9.6a23.6 23.6 0 0 0 8.2 3.2 120.8 120.8 0 0 0 24.5 1.8h377.6a312.8 312.8 0 0 0 44.7-2.3 157.4 157.4 0 0 0 39.4-9.1 108.6 108.6 0 0 0 19.1-11 199.7 199.7 0 0 0 21.2-18.1h-53.6a64.9 64.9 0 0 1-24.3 10.9 126.2 126.2 0 0 1-30.6 2.7h-15.4a77 77 0 0 1-26-2.7 5 5 0 0 1-3.2-6.2 52.9 52.9 0 0 1 9.1-13.3 82.4 82.4 0 0 1 13.7-14 38.7 38.7 0 0 1 12.6-7 137.2 137.2 0 0 1 31.3-2.7h9.1c13.2 0 21.8 1 25.5 3.2l60.6-9a10.3 10.3 0 0 0-1-11Zm-622.1 59a20.5 20.5 0 0 1-14.1 7.8c-5 1-27.4.7-28 .8h-19.7c-8 0-14.2 0-17.5-.6-10.6-.8-1-7 3.2-10.6a25 25 0 0 1 11.1-6.3 134.8 134.8 0 0 1 22.1-1.6h42.7c10.2 0 9.6.8 0 10.2Zm292.3-30.7a41.7 41.7 0 0 1 19.2-12.5 70.3 70.3 0 0 1 20.6-3.2h13.1c17.3 0 26.4 1.4 27.8 4.6.9.9.4 2.3 0 3.7a50.1 50.1 0 0 1-5.4 7.7h-75.3Zm-388.1-12.5 19.9-24.1h-78.9a33.6 33.6 0 0 0-27.8 13.4l-62.7 83.6h47.8s46.7-63.6 49.2-66.6a13 13 0 0 1 10.8-6.3Zm-109.8 0 20-24.1h-79a33.6 33.6 0 0 0-27.8 13.4l-62.7 83.6h47.9s46.6-63.6 49.1-66.6a12.5 12.5 0 0 1 10.8-6.3Zm-110.8-3.4a10.8 10.8 0 0 0-1.8-13.2 25 25 0 0 0-17.3-6.8h-90.5a81.6 81.6 0 0 0-18.3 1.8 92.2 92.2 0 0 0-35.5 13.6 112.8 112.8 0 0 0-13.6 11.4 160.6 160.6 0 0 0-16 17.8 245.4 245.4 0 0 0-20.5 26.8h-99.4a70.5 70.5 0 0 1-26-3.6 4.6 4.6 0 0 1-3.4-5.6 4.9 4.9 0 0 1 .2-.7 54.7 54.7 0 0 1 9.1-13.2 82.3 82.3 0 0 1 13.7-14 38.8 38.8 0 0 1 12.6-6.9 132 132 0 0 1 31.3-2.8c13.7 0 26 1 29.6 3.2l56.5-9a10.3 10.3 0 0 0-.5-11 29.8 29.8 0 0 0-18.8-7.7A326.3 326.3 0 0 0 825 564a404.7 404.7 0 0 0-48.3 2.3 118 118 0 0 0-30.2 7 98.7 98.7 0 0 0-22.8 14.2 195 195 0 0 0-24.6 25.4 152.7 152.7 0 0 0-19.5 27.8c-2.7 6.3-2.3 11 .9 14.1a36 36 0 0 0 18.2 6.9 224.4 224.4 0 0 0 36 1.8H948c6.7 0 13.7 0 20.5-.4h2.8a110.8 110.8 0 0 0 57.7-19.5 104.1 104.1 0 0 0 13.7-11.8c3.8-3.9 9-9.9 15.3-17.5l2-2a139.6 139.6 0 0 0 18.2-26Zm-56.9 13.7a62.8 62.8 0 0 1-9.1 13.6 58.6 58.6 0 0 1-23.2 18.8 71.2 71.2 0 0 1-17.8 3.6h-1.8c-5.2.4-10.8.4-17.7.4a89.5 89.5 0 0 1-29.1-2.7 5.8 5.8 0 0 1-3.2-6.3 62.7 62.7 0 0 1 9-13.2 69.3 69.3 0 0 1 14.2-14.1 41 41 0 0 1 14-6.8 67.4 67.4 0 0 1 11.6-2.1h3.7c5.2-.4 11.4-.4 18-.4a90.5 90.5 0 0 1 28.2 2.8 5.2 5.2 0 0 1 3.2 6.2Z"/><path fill="#c8c8c8" d="M279.4 1004.4c-57.7 26.9-99.3 36.8-120.9 36.8-16.7.6-24.4-5.5-27-21.3-1.5-13.8 3.1-40.2 13-76.4a392.6 392.6 0 0 1 31.1-89.5 185.3 185.3 0 0 1 41.9-55.8q39.2-33 131.7-76c59.7-27.9 112.9-49.6 151-44l14.6 1.9 198.7-159.5c-.5-21.6-8.8-39.6-24.3-46.9-21.4-9.4-52.9-9.2-97.4 4.2C549 490.5 481.5 517.3 392 559c-93.7 44-161.6 80.1-206.6 108.4A579 579 0 0 0 67 761.5 475 475 0 0 0 0 862v243h358.5L1168 723.9H873.6Z"/></svg>