<svg xmlns="http://www.w3.org/2000/svg" viewBox="0 0 500 500"><path fill="#014694" d="M500 250a250 250 0 1 1-500 0 250 250 0 0 1 500 0"/><path fill="#fff" d="M172.3 437.3c0 3.4-1.3 6-3.7 8s-5.9 2.9-10.2 2.9-7.8-.7-10.6-2v-6a28.6 28.6 0 0 0 11 2.7c2.5 0 4.3-.5 5.5-1.4s1.8-2.2 1.8-3.8c0-1.4-.6-2.6-1.7-3.6a24 24 0 0 0-6.6-3.6c-3.5-1.4-6-3-7.4-4.8-1.4-1.8-2.1-4-2.1-6.5a9 9 0 0 1 3.4-7.5c2.2-1.9 5.3-2.8 9-2.8s7.4.8 11 2.4l-2 5.1a23.8 23.8 0 0 0-9-2.1c-2.1 0-3.6.4-4.7 1.3-1 .9-1.5 2-1.5 3.5 0 1 .2 1.8.6 2.5s1 1.4 2 2a35 35 0 0 0 5.2 2.5c2.8 1.2 4.9 2.3 6.2 3.3a9 9 0 0 1 2.8 3.4c.7 1.3 1 2.8 1 4.5Zm24.7 10.3-1.2-4h-.2c-1.4 1.8-2.8 3-4.2 3.6s-3.2 1-5.4 1c-2.9 0-5-.8-6.7-2.4a8.6 8.6 0 0 1-2.4-6.5c0-3 1.1-5.2 3.4-6.7 2.2-1.5 5.5-2.3 10-2.5l5-.1v-1.6c0-1.8-.4-3.2-1.3-4.1s-2.2-1.4-4-1.4a14 14 0 0 0-4.2.7c-1.4.4-2.7 1-4 1.5l-2-4.4a23.4 23.4 0 0 1 10.4-2.5c3.8 0 6.5.8 8.4 2.4 1.9 1.6 2.8 4.1 2.8 7.6v19.4H197Zm-9-4.2c2.1 0 4-.6 5.3-1.8a7 7 0 0 0 2-5.3v-2.5l-3.7.2c-3 .1-5 .6-6.3 1.4-1.3 1-2 2.2-2 4 0 1.3.4 2.3 1.2 3 .7.7 1.9 1 3.4 1Zm28.1 4.2H210V407h6.1v40.6Zm28.1 0h-22v-3.8l14.7-20.3h-13.7v-4.7h20.6v4.3l-14.3 19.8h14.7v4.7Zm21-29.3c3.6 0 6.4 1.2 8.4 3.9s3 6.2 3 11-1 8.4-3 11-4.9 4-8.5 4-6.5-1.4-8.5-4h-.4l-1.2 3.4h-4.6V407h6.2v9.7a68.4 68.4 0 0 1-.3 5.9h.3c2-3 4.8-4.4 8.6-4.4Zm-1.6 5c-2.5 0-4.3.7-5.3 2.1-1.1 1.5-1.7 4-1.7 7.3v.5c0 3.5.5 6 1.7 7.6 1 1.6 2.9 2.3 5.4 2.3 2.2 0 3.8-.8 5-2.5s1.6-4.2 1.6-7.5c0-6.6-2.2-9.8-6.7-9.8Zm40.5 24.3-.9-3.8h-.3a8 8 0 0 1-3.6 3.2 12 12 0 0 1-5.4 1.2 11 11 0 0 1-7.8-2.6c-1.7-1.8-2.6-4.4-2.6-8v-18.8h6.2v17.8a8 8 0 0 0 1.3 5c1 1 2.4 1.6 4.3 1.6 2.6 0 4.5-.8 5.7-2.3 1.2-1.5 1.8-4.1 1.8-7.7v-14.4h6.1v28.8h-4.8Zm28.2-29.3c1.3 0 2.3 0 3 .2l-.5 5.7-2.7-.3c-2.5 0-4.5.8-6 2.4a8.7 8.7 0 0 0-2.3 6.3v15h-6.1v-28.8h4.8l.8 5h.3c1-1.7 2.2-3 3.8-4 1.5-1 3.2-1.5 5-1.5Zm32.8.5v3.3l-5 1a8.8 8.8 0 0 1 1.6 5c0 3-1 5.3-3 7-2.1 1.7-5 2.6-8.5 2.6-1 0-1.8 0-2.5-.2-1.4.8-2 1.8-2 2.9 0 .6.3 1.1 1 1.4a8 8 0 0 0 3.3.5h5c3.2 0 5.7.7 7.3 2 1.7 1.4 2.5 3.4 2.5 6 0 3.2-1.3 5.7-4 7.5a21.3 21.3 0 0 1-11.7 2.7c-4 0-7-.7-9-2.1a6.8 6.8 0 0 1-3.1-6c0-1.7.5-3.2 1.6-4.4s2.7-2 4.7-2.6a5 5 0 0 1-2-1.6c-.5-.8-.8-1.6-.8-2.5 0-1 .3-2 1-2.7.5-.8 1.4-1.5 2.6-2.2a8 8 0 0 1-3.6-3.2 9.2 9.2 0 0 1-1.4-5c0-3.2 1-5.6 3-7.4 2-1.7 4.8-2.5 8.4-2.5a21.2 21.2 0 0 1 4.6.5h10ZM342.4 452c0 1.3.6 2.4 1.8 3a9 9 0 0 0 5 1.1c3.4 0 5.9-.4 7.5-1.4 1.6-1 2.4-2.2 2.4-3.8 0-1.3-.4-2.1-1.3-2.7-.9-.5-2.6-.8-5-.8h-4.7c-1.7 0-3.1.4-4.1 1.2a4 4 0 0 0-1.6 3.4Zm2.7-24c0 1.8.4 3.2 1.4 4.2.9 1 2.2 1.5 4 1.5 3.5 0 5.3-2 5.3-5.7 0-2-.5-3.4-1.3-4.4-1-1-2.2-1.5-4-1.5s-3.2.5-4 1.5c-1 1-1.4 2.5-1.4 4.4ZM83.6 410.3c-4.2 0-8.2-.4-12-1.2v-17.9l4 .8c1.4.3 3 .4 4.6.4 3.8 0 6.5-1.1 8.1-3.4 1.6-2.3 2.5-6.2 2.5-11.8v-78.7h23v76.8c0 11.5-2.5 20.2-7.5 26.1-5 6-12.6 8.9-22.7 8.9Zm100.9-26.7-4.2-16h-27.7l-4.3 16h-25.2l27.7-85.5h30.7l28.1 85.5h-25.1Zm-9-34.8-3.7-14a514.6 514.6 0 0 1-5.5-22.6c-.3 2-1 5.2-2 9.7-1 4.6-3.4 13.5-6.9 26.9h18.1Zm116.2 34.8h-23v-34.7h-26.8v34.7h-23.1v-85.1h23.1V330h26.7v-31.5h23.1v85Zm41.4-31v31h-23v-85.1H338c23.1 0 34.7 8.4 34.7 25.1 0 9.9-4.8 17.5-14.4 22.9l24.7 37h-26l-18-30.9h-6Zm0-17.3h4.3c8 0 12-3.5 12-10.6 0-5.9-3.9-8.8-11.7-8.8H333v19.4Zm108.2 48.3h-50.5v-85.1h50.5v18.4h-27.5v13.4h25.5v18.5h-25.5v16h27.5v18.8Z"/><path fill="#014694" d="M246 280.2H90.5v-38.1l52.4-53c15-15.6 24.7-26.3 29.3-32a70.3 70.3 0 0 0 9.6-14.8 30 30 0 0 0 2.8-12.9 17 17 0 0 0-5.5-13.2c-3.6-3.2-8.7-4.8-15.2-4.8s-13.6 2-20.5 5.8-14.7 9.5-23.4 17L88.1 97c11-9.9 20.3-17 27.8-21.2 7.6-4.2 15.8-7.5 24.6-9.7 8.9-2.3 18.8-3.4 29.9-3.4a90 90 0 0 1 37.2 7.3 58.2 58.2 0 0 1 25.3 21c6 9 9 19.1 9 30.4a82 82 0 0 1-3.1 23.3 81.9 81.9 0 0 1-9.8 21 146.2 146.2 0 0 1-17.5 21.8c-7.3 7.7-22.8 22.1-46.6 43.5v1.4h81.2v47.8Z"/><path fill="none" stroke="#fff" stroke-miterlimit="10" stroke-width="5.3" d="M246 232.4h-81v-1.5c23.7-21.3 39.2-35.8 46.5-43.4 7.3-7.6 13.1-14.9 17.5-21.8s7.7-13.9 9.8-21c2.1-7.2 3.2-15 3.2-23.4 0-11.2-3-21.4-9-30.4s-14.5-16-25.4-20.9a90 90 0 0 0-37.2-7.3c-11 0-21 1-29.9 3.3a102 102 0 0 0-24.6 9.8A171.3 171.3 0 0 0 88.1 97l31.8 37.3c8.7-7.6 16.5-13.3 23.4-17.1 7-3.9 13.7-5.8 20.5-5.8s11.6 1.6 15.2 4.8c3.6 3.2 5.5 7.6 5.5 13.2 0 4.5-1 8.8-2.8 13a70 70 0 0 1-9.6 14.7 626.7 626.7 0 0 1-29.3 32l-52.4 53v38.1h155.7v-47.8Z"/><path fill="#014694" d="M375.4 173.3c0 38-6.4 65.7-19.1 83.4-12.7 17.6-32.2 26.5-58.4 26.5s-45-9.3-58-27.7-19.4-45.8-19.4-82.2 6.3-66.1 19-84c12.7-17.7 32.2-26.6 58.4-26.6s44.8 9.2 57.9 27.8c13 18.5 19.6 46.1 19.6 82.8Zm-97.3 0c0 24.2 1.5 41 4.6 50 3 9.1 8 13.6 15.2 13.6s12.4-4.6 15.4-14 4.4-26 4.4-49.6-1.5-40.4-4.5-50c-3-9.5-8.1-14.3-15.3-14.3s-12.2 4.6-15.2 13.8c-3 9.2-4.6 26-4.6 50.5Z"/><path fill="none" stroke="#fff" stroke-miterlimit="10" stroke-width="5.3" d="M282.6 122.8c3-9.2 8.2-13.8 15.3-13.8s12.2 4.8 15.3 14.3c3 9.6 4.5 26.2 4.5 50s-1.5 40.2-4.5 49.6c-3 9.4-8 14-15.3 14s-12.2-4.5-15.2-13.6-4.6-25.8-4.6-50 1.5-41.3 4.6-50.5Zm73.2-32.3c-13-18.6-32.4-27.8-57.9-27.8s-45.7 8.9-58.4 26.7c-12.7 17.8-19 45.7-19 83.9s6.4 63.8 19.5 82.2c13 18.4 32.3 27.7 58 27.7s45.6-8.9 58.3-26.5c12.7-17.7 19-45.5 19-83.4s-6.5-64.3-19.5-82.8Z"/><path fill="#014694" d="M338 174.2h114.5v115.2H338z"/><g fill="#fff"><path d="M442.2 277.5v-90.1H351v.5a90 90 0 0 1 90.7 89v.6h.5Zm-79.3-24h11.5l-12.3 23.9h-11.3l12.1-23.9zm19.2-7.9H394l-7.1 13 7-5.1H408l-11.4 8.5h6.7l-7.8 15.4h-11.6l5.1-10.2h-6.2l-5.2 10.2h-11.8l16.3-31.8zm-12.3 5.7a10.3 10.3 0 1 0 0-20.6 10.3 10.3 0 0 0 0 20.6"/><path d="M436.5 253.5H411l-12 23.9h25.7l11.7-24Zm-13 4-8 15.8h-4.2l8.1-15.8h4Z"/></g></svg>