<svg xmlns="http://www.w3.org/2000/svg" data-name="Ebene 2" viewBox="0 0 1110.11 721.77"><path fill="#ffc727" d="m272.14 398.31-16.1 1.12-5.49-78.77 16.1-1.12z"/><path fill="#37474f" d="m267.34 328.48-15.31 1.07a8.85 8.85 0 0 1-9.45-8.21l-1.99-28.55 32.98-2.3 2 28.55a8.85 8.85 0 0 1-8.22 9.44Z"/><path fill="#455a64" d="m269.24 320.4-20.21 1.41-.77-11 20.21-1.4z"/><path fill="#263238" d="m240.61 292.78.58 8.3c3.78.12 20.32.71 23.46 1.46 1.54.36 8.2 8.21 10.55 11.01l-1.61-23.07-32.98 2.3Z"/><path fill="#ffc727" d="m236.5 289.43 1.4 20.08 2.22-.15c.29-.02 5.25-8.94 6.46-10.34 1.22-1.39 4.68-1.19 10.47-1.59 5.79-.4 9.19-1.08 10.58.13 1.39 1.22 7.54 9.37 7.83 9.35l2.22-.15-1.4-20.08c-.2-2.89-16.58-30.66-17.74-30.58l-4.34.3-4.34.3c-1.16.08-13.54 29.86-13.34 32.75Z"/><path d="m236.5 289.43 1.4 20.08 2.22-.15c.29-.02 5.25-8.94 6.46-10.34 1.22-1.39 4.68-1.19 10.47-1.59 5.79-.4 9.19-1.08 10.58.13 1.39 1.22 7.54 9.37 7.83 9.35l2.22-.15-1.4-20.08c-.2-2.89-16.58-30.66-17.74-30.58l-4.34.3-4.34.3c-1.16.08-13.54 29.86-13.34 32.75Z" opacity=".4"/><path fill="#ffc727" d="M246.58 299c1.21-1.39 4.67-1.19 10.46-1.59 5.79-.4 9.19-1.08 10.58.13-.55-13.36-6.77-38.51-9.1-41.47l-8.69.61c-1.9 3.25-4.57 29.02-3.26 42.33Z"/><path fill="#fff" d="M246.58 299c1.21-1.39 4.67-1.19 10.46-1.59 5.79-.4 9.19-1.08 10.58.13-.55-13.36-6.77-38.51-9.1-41.47l-8.69.61c-1.9 3.25-4.57 29.02-3.26 42.33Z" opacity=".3"/><path fill="#455a64" d="M240.01 312.74c2.57-4.12 6.98-11.03 7.85-12.03.41-.48 3.3-.64 5.84-.78 1.04-.06 2.2-.12 3.5-.21 1.3-.09 2.46-.19 3.5-.27 2.66-.22 5.42-.45 5.89-.04 1 .87 6.32 7.1 9.43 10.82l3.57-2.99c-1.38-1.65-8.37-9.98-9.94-11.35-1.96-1.7-4.58-1.48-9.33-1.09-1.02.08-2.16.18-3.44.27-1.27.09-2.42.15-3.44.21-4.76.27-7.39.42-9.09 2.37-1.37 1.57-7.14 10.79-8.29 12.62l3.95 2.47Z"/><path fill="#37474f" d="m273.74 398.19-18.35 1.28a7.34 7.34 0 0 0-6.81 7.83l1.37 19.67 17.03 6.62 15.95-8.92-1.37-19.67a7.34 7.34 0 0 0-7.83-6.81Z"/><path fill="#455a64" d="m255.03 407.44 20.21-1.4.77 10.99-20.21 1.4z"/><path fill="#263238" d="m282.96 425-.04-.56c-3.78-.12-20.16 1.61-23.3.87-1.54-.36-8.2-8.21-10.55-11.01l1.07 15.33 16.85 3.97 15.96-8.59Z"/><path fill="#455a64" d="m260.89 434.96 2.26-.18 3.43-.27c1.27-.09 2.41-.15 3.44-.21 4.77-.27 7.39-.42 9.09-2.38 1.37-1.57 7.14-10.79 8.28-12.62l-3.95-2.47c-2.57 4.12-6.98 11.03-7.85 12.03-.41.47-3.17.63-5.84.78-1.04.06-2.2.12-3.5.21s-2.46.19-3.49.27c-2.67.22-5.42.45-5.9.04-1-.87-6.32-7.1-9.43-10.82l-3.57 2.99c1.38 1.65 8.37 9.98 9.94 11.35 1.62 1.41 3.7 1.5 7.07 1.27Z"/><path fill="#ffc727" d="m294.24 618.03-33.54 5.47s-40.75-467.8-44.09-535.42S245.05 1.25 263.24 0c3.04-.21-2.4 7.69-6.14 24.83-3.74 17.14-5.11 33.51-1.03 78.59 3.47 38.28 38.16 514.61 38.16 514.61Z"/><path d="m294.24 618.03-33.54 5.47s-40.75-467.8-44.09-535.42S245.05 1.25 263.24 0c3.04-.21-2.4 7.69-6.14 24.83-3.74 17.14-5.11 33.51-1.03 78.59 3.47 38.28 38.16 514.61 38.16 514.61Z" opacity=".1"/><path d="M257.11 24.84c-3.74 17.13-5.11 33.5-1.04 78.58 2.27 25.17 18.05 239.55 28.59 383.57 5.51 75.09 9.58 131.05 9.58 131.05l-33.55 5.47s-8.65-99.29-18.29-213c-11.31-133.1-23.99-285.96-25.8-322.42C213.27 20.45 245.04 1.24 263.24 0c3.04-.21-2.39 7.69-6.13 24.84Z" opacity=".1"/><path d="M257.1 24.83c-3.74 17.14-5.1 33.51-1.02 78.59 3.47 38.28 38.16 514.61 38.16 514.61l-2.75.45s-34.69-476.33-38.16-514.61c-4.08-45.08-2.71-61.45 1.02-78.59C258.1 8.14 263.54.25 260.5.45c-.51.04-1.04.08-1.57.15 1.5-.31 2.95-.5 4.31-.6 3.05-.21-2.39 7.68-6.14 24.83Z" opacity=".3"/><path d="m289.87 558.1 4.38 59.94-33.55 5.47s-6.64-75.8-16.28-189.52l45.44 124.11Z" opacity=".2"/><path fill="#ffc727" d="m133.72 78.67 160.76 534.22-37.08 11.16L96.64 89.83c-9.17-30.46 2.04-60.36 2.04-60.36s25.87 18.74 35.03 49.21Z"/><path fill="none" d="m133.72 78.67 160.76 534.22-37.08 11.16L96.64 89.83c-9.17-30.46 2.04-60.36 2.04-60.36s25.87 18.74 35.03 49.21Z" opacity=".1"/><path fill="#ffc727" d="m196.4 382.1 15.44-4.65 22.76 75.6-15.45 4.66z"/><path fill="#37474f" d="m179.65 357.38 31.65-9.53 8.25 27.4a8.85 8.85 0 0 1-5.92 11.03l-14.7 4.43a8.85 8.85 0 0 1-11.03-5.93l-8.25-27.4Z"/><path fill="#455a64" d="m191.1 373.25 19.4-5.84 3.18 10.55-19.4 5.84z"/><path fill="#263238" d="m211.29 347.86 2.4 7.97c-3.49 1.45-18.75 7.86-21.43 9.67-1.31.88-4.76 10.59-5.96 14.04l-6.67-22.15 31.66-9.53Z"/><path fill="#ffc727" d="m213.94 343.27 5.8 19.27-2.13.64c-.28.08-8.07-6.51-9.7-7.39-1.64-.87-4.8.54-10.36 2.22-5.56 1.67-8.98 2.24-9.85 3.86-.87 1.64-3.73 11.43-4.01 11.52l-2.13.64-5.8-19.27c-.84-2.78 4.65-34.55 5.77-34.88l4.17-1.25 4.17-1.25c1.11-.34 23.24 23.13 24.07 25.9Z"/><path fill="#fff" d="m213.94 343.27 5.8 19.27-2.13.64c-.28.08-8.07-6.51-9.7-7.39-1.64-.87-4.8.54-10.36 2.22-5.56 1.67-8.98 2.24-9.85 3.86-.87 1.64-3.73 11.43-4.01 11.52l-2.13.64-5.8-19.27c-.84-2.78 4.65-34.55 5.77-34.88l4.17-1.25 4.17-1.25c1.11-.34 23.24 23.13 24.07 25.9Z" opacity=".6"/><path fill="#ffc727" d="M207.91 355.8c-1.62-.87-4.78.54-10.35 2.21-5.56 1.67-8.98 2.24-9.85 3.86-4.22-12.69-7.31-38.41-6.17-42l8.34-2.51c2.92 2.37 14.55 25.52 18.03 38.43Z"/><path fill="#fff" d="M207.91 355.8c-1.62-.87-4.78.54-10.35 2.21-5.56 1.67-8.98 2.24-9.85 3.86-4.22-12.69-7.31-38.41-6.17-42l8.34-2.51c2.92 2.37 14.55 25.52 18.03 38.43Z" opacity=".3"/><path fill="#455a64" d="M218.91 366.32c-3.86-2.94-10.43-7.84-11.6-8.47-.55-.3-3.31.57-5.74 1.34l-3.35 1.04-3.37.98c-2.57.74-5.23 1.5-5.53 2.05-.63 1.17-3.39 8.88-4.99 13.46l-4.4-1.53c.71-2.04 4.29-12.3 5.28-14.13 1.23-2.29 3.76-3.01 8.34-4.32a309.25 309.25 0 0 0 6.6-1.98c4.55-1.43 7.06-2.23 9.34-1 1.84.99 10.5 7.56 12.22 8.87l-2.82 3.71Z"/><path fill="#37474f" d="m217.63 458.18 17.62-5.3a7.34 7.34 0 0 1 9.14 4.91l5.68 18.88-13.58 12.22-18.07-2.7-5.68-18.88a7.34 7.34 0 0 1 4.91-9.14Z"/><path fill="#455a64" d="m241.59 470.77-19.4 5.84-3.18-10.55 19.4-5.84z"/><path fill="#263238" d="m218.5 486.51-.16-.54c3.49-1.45 19.42-5.63 22.1-7.44 1.31-.88 4.76-10.59 5.96-14.04l4.43 14.72-14.36 9.68-17.97-2.38Z"/><path fill="#455a64" d="m242.66 488.01-2.18.63-3.31.96-3.29 1.02c-4.56 1.43-7.06 2.23-9.35 1-1.84-.99-10.5-7.56-12.21-8.87l2.82-3.7c3.86 2.94 10.43 7.84 11.6 8.47.56.3 3.19-.53 5.74-1.34l3.35-1.04 3.36-.98c2.57-.73 5.23-1.5 5.53-2.05.63-1.17 3.39-8.88 4.99-13.46l4.4 1.53c-.71 2.04-4.29 12.3-5.28 14.13-1.02 1.89-2.93 2.72-6.17 3.69Z"/><path fill="#37474f" d="M329.57 612.08s-6.36 3.61-19.37-.7c-13.01-4.3-15.96-10.99-15.96-10.99s5.81-3.58 19.31.89 16.02 10.8 16.02 10.8Z"/><path fill="#ffc727" d="m417.35 275.18 7.35 2.43-108.89 329.06-7.35-2.43z"/><path fill="#37474f" d="M446.96 220.23c.28 1.89 4.79 15.94 6.1 19.74 1.31 3.79 3.42 21.23 3.69 24.89.25 3.31-3.06 19.94-4.32 20.58-1.26.64-9.2-3.2-11.49-4.96-2.29-1.77-4.19-17.22-5.23-24.56-1.12-7.91 6.33-37.31 6.33-37.31l1.75.58s-3.71 29-3.08 32.74c.63 3.74 2.22 22.67 3.66 24.26 1.44 1.59 4.91 5.75 6.22 5.48 1.31-.27 1.2-14.19.96-16.34s-3.02-21.38-3.21-23.68c-.19-2.3-3.1-21.98-3.1-21.98l1.71.57Z"/><path fill="#263238" d="m434.35 216.06 12.05 4-22.2 67.08-12.05-3.99z"/><path fill="#263238" d="M432.05 211.33 451 217.6l-1.19 3.59-18.95-6.27zM408.66 282l18.95 6.27-1.19 3.59-18.95-6.27z"/><path d="m446.43 220.05-12.07-3.99-1.2 3.63 12.67 2.17.6-1.81zm-34.26 63.1 12.06 3.99 1.2-3.63-12.66-2.18-.6 1.82z" opacity=".2"/><path d="m326.71 549.16 2.51 17.05 11.96-36.14-1.23-20.93-13.24 40.02z" opacity=".1"/><path fill="#37474f" d="M352.79 611.8s-4.91 5.42-18.61 5.42-18.61-5.42-18.61-5.42 4.39-5.22 18.61-5.22 18.61 5.22 18.61 5.22Z"/><path fill="#ffc727" d="M330.31 264.36h7.74v346.61h-7.74z"/><path fill="#37474f" d="M340.58 202.91c0 1.91 8.86 19.06 9.6 23 .74 3.95-.52 21.88 0 25.16.52 3.28-5.96 19.28-7.29 19.73s-7.15-1.71-9.16-3.8-6.25-19.95-7.52-27.84c-1.27-7.89 8.01-36.25 8.01-36.25h2.11s-5.51 28.43-5.43 32.23c.07 3.8 4.54 25.01 5.73 26.8 1.19 1.79 3.57 5.95 4.91 5.88 1.34-.07 3.35-14.89 3.42-17.05s.15-21.59.3-23.89c.15-2.31-7.01-23.97-7.01-23.97h2.32Z"/><path fill="#263238" d="M327.88 202.91h12.7v70.67h-12.7zm-3.68-3.78h19.96v3.78H324.2z"/><path fill="#263238" d="M324.2 273.57h19.96v3.78H324.2z"/><path d="M340.58 202.91h-12.7v3.82l12.7-1.91v-1.91zm-12.7 70.66h12.7v-3.82l-12.7 1.91v1.91z" opacity=".2"/><path fill="#ffc727" d="M0 721.77V524.28s56.94-12.39 155.16-7.67c98.22 4.72 563.78 205.16 954.94 205.16H0Z"/><path fill="#fff" d="M0 721.77V524.28s56.94-12.39 155.16-7.67c98.22 4.72 563.78 205.16 954.94 205.16H0Z" opacity=".95"/><path fill="#ffc727" d="M21.09 721.77H0V524.26s24.82-5.39 69.92-7.7c85.24.04 101.39 56.5-48.83 205.21Z" opacity=".1"/></svg>