<svg xmlns="http://www.w3.org/2000/svg" viewBox="0 0 240.9 155.9"><path d="M0 0h240.9v155.9H0z" style="fill:#2b5597"/><path d="M35 136.1c-1.1-.7-2-1.7-2.4-2.8a9 9 0 0 1-.7-3.6c0-1.4.3-3 .9-4.7a28.7 28.7 0 0 1 5.4-9.6 32.6 32.6 0 0 1 7.6-6.8c1.3-.7 2.4-1 3.4-1.1.6-.1 1.2 0 1.8.1l1.5 1c.5.4.8 1 1.1 1.4.3.6.4 1.1.4 1.6s0 1-.3 1.3a4 4 0 0 1-1.2 1v-.1h-.9l-.4-.2a.4.4 0 0 1-.2-.4v-3l-.3.1h-.3l-.2.1c-2.4.6-4.4 1.6-6.2 3a19 19 0 0 0-4.3 5.3c-1.8 3-3 5.6-3.8 7.6a14 14 0 0 0-1.2 4.7c0 .7.2 1.3.5 1.6.4.3.8.4 1.4.4a8 8 0 0 0 2.6-.5 25 25 0 0 0 6.4-3.4 36 36 0 0 0 5-4.3 4 4 0 0 0 1-1.5c-.3 0-.6 0-1 .2l-.9.2-1.3.5-2 .6-1.8.7-1.4.4h-.9c-.3 0-.5-.2-.7-.4l-.4-.7-.2-.7c0-.4.1-.7.3-1 .1-.3.4-.5.8-.6l1.2-.3 2.4-.9 3-1a90.4 90.4 0 0 1 6.1-1.8l2.3-.3c.9 0 1.4.2 1.7.5.3.4.3 1-.1 1.8l-1.4 1.4-1.5 1.4-1.5 1.6-1.3 1.3-.9.9-.8.7-1.6 1.4-1.8 1.5-1.5 1a87 87 0 0 1-4 3.2l-2.6 1.4a6 6 0 0 1-2.6.5 3.8 3.8 0 0 1-2.3-.7Zm38 .1a5 5 0 0 1-2.8-2.5l-.5-1.6a35.4 35.4 0 0 1-.5-2.3l-.9.7-1.4 1.3-1.6 1.4a19.6 19.6 0 0 1-3.5 2.2 4 4 0 0 1-1.6.4c-.7 0-1.2-.2-1.7-.6-.5-.4-1-1-1.2-2-.2-.3-.1-1 0-1.7l1.1-2.5a35.3 35.3 0 0 1 3.5-5.6 34.6 34.6 0 0 1 2.7-3.4c1 .5 1.5 1.1 1.5 1.9l-.3 1.2-.6 1.3c-.3.5-.5.9-.9 1.3l-1 1.5-1 1.5a30.4 30.4 0 0 0-1.6 2.8c-.2.4-.2.8-.2 1 .3.1.8 0 1.3-.3a14.7 14.7 0 0 0 3.6-2.9 65 65 0 0 0 5.6-6.2 257.1 257.1 0 0 0 3-3c.5.2.9.5 1 .8s.4.8.4 1.2a5 5 0 0 1-.4 2 208.1 208.1 0 0 1-2.2 4.8 8 8 0 0 0-.5 2.4c0 .5.1 1 .5 1.4l1 1.3h3.6c.2 0 .2.1.1.4l-.4.9a12 12 0 0 1-1 1.4h.2H74l-1.2-.5Zm10-.3c0-.2-.1-.5 0-.8v-.6l.2-.3.4-1.7.6-2 .6-2 .4-1.2v-.2l.2-.7.2-.8-1.2.2-1 .2-1.2.1c-.5 0-.9 0-1.3-.3-.4-.2-.7-.6-1-1.2a3.1 3.1 0 0 1 1.8-1.8l1-.3 1.3-.2 1.7-.2a2 2 0 0 0 1.2-.7 42.7 42.7 0 0 0 1.6-4.7 129.3 129.3 0 0 1 2.8-6.6c.4-.3.8-.4 1-.2.4.2.6.5.8.9l.4 1.1v.9c0 .4-.2 1-.5 1.4l-.7 1.7-1 2.3a6 6 0 0 0-.5 2.2v.4h7.6c.3 0 .5.1.6.3l.4.6c.2.5.3.8.1 1-.1.3-.4.5-.8.6l-1.4.2-1.8.1h-2l-1.9.3c-.6 0-1 .3-1.5.5-.4.2-.7.4-.8.8a94.4 94.4 0 0 0-3.5 10.2 3.7 3.7 0 0 1-1.3 1.2c-.3.1-.6.2-.8.1-.3 0-.6-.4-.7-.9Z" style="fill:#fff"/><path d="M98.1 136.2c-.4-.3-.5-.5-.5-.9 0-.3.2-.6.5-.9l1.2-1a20.7 20.7 0 0 1 3.6-2l1.9-.8 1.6-.9 1-.5c.8-.7 1.2-1.2 1.2-1.5 0-.2-.2-.3-.5-.5a19.7 19.7 0 0 0-4.3-1 37.2 37.2 0 0 1-3.5-.7l-1.1-.6c-.2-.2-.5-.6-.5-1 0-.3.2-.7.5-1.1a42.7 42.7 0 0 1 9.8-6c.3-.1.5-.1.8 0a2.5 2.5 0 0 1 1.5.9l.2.6c0 .5-.3 1-.8 1.2l-1.1.7-1.1.5-3 1.7-2.6 1.6c1.7.2 3.1.4 4.3.7 1.2.3 2.1.6 2.9 1 .7.3 1.2.7 1.5 1.1s.5 1 .5 1.4c0 .6-.3 1.3-1 2a18 18 0 0 1-2.4 2 29.4 29.4 0 0 1-10.6 4Zm18.9 0c-1.1-.4-2-1-2.5-1.8s-.8-1.7-.8-2.7.2-2 .7-3.1a25 25 0 0 1 1.6-3.3 28.2 28.2 0 0 1 5-5.9 15 15 0 0 1 2.7-1.9c.8-.4 1.6-.6 2.2-.6.6 0 1 .1 1.4.5.4.3.7.8.8 1.6.1.5 0 1.1-.3 1.8l-1 1.8-1.5 1.4c-.5.4-1 .6-1.4.6-.3 0-.5-.1-.8-.3-.2-.3-.4-.6-.5-1.1.3-.6.6-1.2 1-1.6l1-1.2a2 2 0 0 0-1.2.5c-.5.3-1 .8-1.6 1.4a20.2 20.2 0 0 0-3.4 4.5c-.5.8-.9 1.7-1.2 2.5-.3.8-.5 1.6-.5 2.2 0 .4 0 .7.2 1 .1.3.3.6.6.8.7 0 1.5 0 2.4-.2l2.9-.8 3-1 2.8-1.1 3.2-1.3c.9-.3 1.6-.4 2-.2.4.3.5.7.2 1.2a6 6 0 0 1-1.6 1.6l-3 1.7a35.8 35.8 0 0 1-7.4 2.8c-1.2.3-2.4.5-3.3.5a5 5 0 0 1-1.6-.3Zm18.8-.8v-.8l.5-1 .7-1.6.8-1.6a29.1 29.1 0 0 1 1.4-2.4l1.4-2.4a69.6 69.6 0 0 1 2.3-3.8l.6-1 .9-1.4 1-1.7a176.6 176.6 0 0 1 5.5-8.8l1.7-1.7c.5-.4.9-.6 1.3-.5.4 0 .6.4.8 1.1v1.4l-.8 1.1-1 1.5-.9 1.4-.6 1-.2.3-.2.4-1 1.6-1.5 2.1-1.5 2.4-1.4 2.4a56.6 56.6 0 0 0-2 3.6 18.4 18.4 0 0 0 3.4-2.3 39 39 0 0 1 3.8-2.5 3.8 3.8 0 0 1 3.2 2.7v6.4c0 .1 0 .3.2.5l.4.7.5.8a23.6 23.6 0 0 0 1 1.6c0 .3 0 .6-.3.8-.6.2-1.2.3-1.7 0-.6 0-1-.4-1.5-.8a5.2 5.2 0 0 1-1.5-3l-.1-1.1-.1-1.7-.2-1.9v-1.4l-.3-.2-.2-.1-.7.3a23.6 23.6 0 0 0-2.5 2l-1.4 1.2-1 1-.6.5-.7.7-1.1 1-1.3 1.3-1.1 1.2-.9.9-.6.6H137c-.5 0-.8-.2-1-.8h-.1Zm25.4.8c-1.1-.4-2-1-2.3-1.8a5 5 0 0 1-.7-2.7 9.9 9.9 0 0 1 .6-3.2 20 20 0 0 0 1.4-1.6 155.4 155.4 0 0 1 5.2-5.2l3-2.4c1-.7 2-1.3 3-1.7.4-.1.8-.2 1.1 0 .3 0 .6.2.8.5l.4 1 .1 1.4a10.5 10.5 0 0 1-.6 3.5l-.3.6-1.8 1.3-2.7 1.5a87.7 87.7 0 0 0-4.7 2.6l-1.7 1.4c-.5.4-.6.8-.6 1.1 0 .3.2.6.6.9h.7c.7 0 1.4 0 2.2-.2a30 30 0 0 0 5-1.1 165.1 165.1 0 0 0 5.5-1.5l1.2 1c-.6.7-1.3 1.3-2.4 2s-2.1 1-3.4 1.5a27.6 27.6 0 0 1-7.2 1.4h-1.3c-.4 0-.8-.2-1.1-.3Zm8.7-14.6-.3.3a33.8 33.8 0 0 1-3.7 2.8l-1.2.9a7 7 0 0 1-.7.4c.3 0 .7 0 1.1-.2l1.5-.5a10.8 10.8 0 0 0 2.7-1.6l1-1c.2-.2.3-.5.3-.7l-.3-.2-.4-.3Zm5.5 13.9a90 90 0 0 1 4-10.2c.5-1 1-1.8 1.5-2.3.4-.5.7-.8 1-.8.3 0 .5.3.6 1s0 1.7-.4 3l-1.5 4.5c-.7 1.8-1.7 3.7-3 5.9h-1.2c-.4 0-.8-.3-1-.7v-.4Zm6.6-17.8v-1.5l.2-.4.7-.3h.6c.6 0 1 .1 1.3.5s.4.7.4 1.2-.2 1-.5 1.4c-.3.4-.6.6-1 .6s-.6 0-1-.3-.4-.6-.7-1.1v-.1Zm18 18 .1-1.9a12.7 12.7 0 0 1 1.2-3.6l1-1.8 1.2-2.8c.3-.9.6-1.8.6-2.6v-1c-.7 0-1.4.2-2.2.6s-1.7 1-2.6 1.8a43.5 43.5 0 0 0-5.7 5.2 101.5 101.5 0 0 1-4.8 4.4c-.7.5-1.3.7-1.8.7s-.8-.4-1-1l.5-1.1 1.3-2.5 1.7-3.2a197.2 197.2 0 0 1 4-6.9c.5.4.9.7 1 1 .3.4.4.7.4 1 0 .4 0 .7-.2 1l-.3.9-.1.3-.2.4 2.5-1.6a50 50 0 0 1 5.8-3c1-.5 1.8-.6 2.5-.6s1.3.1 1.7.5c.4.4.6 1 .6 2 0 .4 0 1-.3 1.8l-1 2.8-.2.4c0 .3-.2.6-.4 1l-.4 1-.6 1.2-.9 2a22.7 22.7 0 0 0-.5 1.6v.3l-.3 1.3c-.1.5-.3.9-.6 1.2-.2.2-.4.2-.6.2-.2 0-.4 0-.6-.2l-.4-.3-.3-.3v-.2ZM226.8 45V14.2h-31.2v.2c17.1 0 31 13.6 31 30.4v.2h.2Zm-27.1-8.2-4.2 8.2h3.9l4.2-8.2h-3.9zm6.5-2.7L200.7 45h4l1.8-3.5h2.1l-1.8 3.5h4l2.7-5.3h-2.3l3.9-2.9h-4.8l-2.4 1.7 2.4-4.4h-4.1zM202 36a3.5 3.5 0 1 0 0-7 3.5 3.5 0 0 0 0 7" style="fill:#fff"/><path d="M219 38.2h1.4l-2.7 5.4h-1.5l2.8-5.4Zm-3-1.4-4 8.2h8.8l4-8.2H216ZM90.9 93 51 95.8l-.5-8.4L63.8 72c3.9-4.7 6.4-7.9 7.6-9.6a20 20 0 0 0 2.5-4.9c.5-1.5.7-3 .6-4.5-.2-2.3-1-4-2.3-5-1.3-1-3-1.4-5.2-1.3-2.2.2-4.3.8-6.3 2-2 1.1-4 2.7-6.2 4.8l-7-7.3c2.6-2.6 4.8-4.5 6.5-5.6a30.9 30.9 0 0 1 13.1-4c3.7-.2 6.8.2 9.7 1.3a14.5 14.5 0 0 1 9.5 12.9c.2 2.6-.1 5-.9 7.5-.7 2.3-2 4.8-3.8 7.3a106 106 0 0 1-9.5 11l-6.8 7.5v.5L90.2 83l.7 10.1Zm43.2-31.6c.7 10-.4 17.4-3.3 22.4-3 5-7.8 7.8-14.6 8.2-6.6.5-11.7-1.6-15.4-6.3A39.3 39.3 0 0 1 94.3 64c-.7-10 .4-17.5 3.3-22.5 3-5 7.8-7.8 14.5-8.2 6.6-.5 11.7 1.7 15.4 6.4 3.7 4.8 6 12 6.6 21.6Zm-27.8 2c.5 6.9 1.4 11.9 2.8 14.8 1.4 3 3.6 4.3 6.4 4.1 2.9-.2 4.8-1.8 5.8-5a43 43 0 0 0 .8-15c-.5-7-1.4-12-3-15-1.4-3-3.5-4.4-6.3-4.2-2.8.2-4.7 1.9-5.8 5-1 3.2-1.2 8.2-.7 15.2ZM167 39.7a11 11 0 0 0-7.7 3.3c-2 2-3 4.7-3.5 8.3l15.8-1.1.4 6.8-16.3 1.2v1.3l.2 1.9.2 1.2 13.8-1 .5 7-13.2 1c1.8 6.2 6.2 9 13.2 8.5 3.7-.2 7.2-1.2 10.5-3l.7 10a24 24 0 0 1-11.2 3.1c-6.4.5-11.7-.9-16-4s-7.3-7.8-8.8-13.8l-5.4.3-.5-7 4.6-.2-.3-2.4V59l-4.6.3-.5-6.9 5.2-.3a24 24 0 0 1 6.7-15.5c4-4 9.1-6.1 15.4-6.5 4.9-.4 9.6.4 14 2.2l-3.2 9.3a40 40 0 0 0-5.2-1.5c-1.6-.4-3.2-.5-5-.4Z" style="fill:#fff"/></svg>