<svg xmlns="http://www.w3.org/2000/svg" viewBox="0 0 1920 1080"><g fill="#ebebeb" data-name="Background Complete"><path d="M1394.81 291.54c10.6 0 275.14-1.84 349.87-1.84 5.23 0-1.38-9.05-4.26-9.68-9.19-2.01-18.76-2.12-28.1-3.08a92.09 92.09 0 0 1-26.78-6.71c-7.35-3.1-14.69-6.69-22.65-7.93-15.39-2.41-28.9 5.93-43.34 9.61-9.38 2.39-17.9 1.43-26.25-3.59-6.68-4-12.74-8.81-19.72-12.34-26.51-13.39-58.79-14.62-86.45-3.96a100.99 100.99 0 0 0-18.91 9.68c-7.05 4.63-13.13 10.54-20.21 15.11-15.67 10.14-35.04 6.84-52.13 12.65-.94.31-2 2.08-1.08 2.08Zm-313.23-146.92c14.02 0 249.87 1.55 264.69 1.08 1.07-.03 1.64-1.6.58-2.12-9.34-4.63-19.94-3.7-29.65-6.97-5.71-1.92-9.22-5.66-13.19-9.94-3.42-3.71-7.4-6.54-12.27-8.01a25.99 25.99 0 0 0-13.36-.42c-4.79 1.14-8.94 3.88-13.51 5.61-11.33 4.28-22.34.21-30.43-8.17-6.67-6.91-13.23-13.43-22.3-17.15-7.59-3.12-16.03-3.77-23.63-.33-8.65 3.92-14.59 11.8-22.71 16.54-9.63 5.63-21.15 4.3-31.79 6-10.67 1.7-18.81 10.66-28.14 15.82-3.19 1.77-6.45 3.24-10.17 3.15-2.08-.05-4.13-.62-6.19-.87-3.21-.4-6.26-.3-8.42 2.37-.53.65-.42 3.42.5 3.42ZM921.5 504.93c14.02 0 249.87 1.55 264.69 1.08 1.07-.03 1.64-1.6.58-2.12-9.34-4.63-19.94-3.7-29.65-6.97-5.71-1.92-9.22-5.66-13.19-9.94-3.42-3.71-7.4-6.54-12.27-8.01a25.99 25.99 0 0 0-13.36-.42c-4.79 1.14-8.94 3.88-13.51 5.61-11.33 4.28-22.34.21-30.43-8.17-6.67-6.91-13.23-13.43-22.3-17.15-7.59-3.12-16.03-3.77-23.63-.33-8.65 3.92-14.59 11.8-22.71 16.54-9.63 5.63-21.15 4.3-31.79 6-10.67 1.7-18.81 10.66-28.14 15.82-3.19 1.77-6.45 3.24-10.17 3.15-2.08-.05-4.13-.62-6.19-.87-3.21-.4-6.26-.3-8.42 2.37-.53.65-.42 3.42.5 3.42Zm-28.17-305.57c10.23 0 182.43 1.13 193.25.79.78-.02 1.19-1.17.42-1.55-6.82-3.38-14.56-2.7-21.65-5.09-4.17-1.41-6.73-4.13-9.63-7.26a19.91 19.91 0 0 0-8.96-5.85 19 19 0 0 0-9.76-.31c-3.49.83-6.53 2.83-9.86 4.09-8.27 3.12-16.31.16-22.22-5.97-4.87-5.04-9.66-9.81-16.28-12.52-5.54-2.28-11.7-2.75-17.25-.24-6.32 2.86-10.65 8.62-16.58 12.08-7.03 4.11-15.44 3.14-23.21 4.38-7.79 1.24-13.73 7.78-20.54 11.55-2.33 1.29-4.71 2.37-7.43 2.3-1.52-.04-3.02-.45-4.52-.64-2.34-.29-4.57-.22-6.15 1.73-.38.48-.31 2.5.37 2.5Zm276.26 142.14c10.23 0 182.43 1.13 193.25.79.78-.02 1.19-1.17.42-1.55-6.82-3.38-14.56-2.7-21.65-5.09-4.17-1.41-6.73-4.13-9.63-7.26a19.91 19.91 0 0 0-8.96-5.85 19 19 0 0 0-9.76-.31c-3.49.83-6.53 2.83-9.86 4.09-8.27 3.12-16.31.16-22.22-5.97-4.87-5.04-9.66-9.81-16.28-12.52-5.54-2.28-11.7-2.75-17.25-.24-6.32 2.86-10.65 8.62-16.58 12.08-7.03 4.11-15.44 3.14-23.21 4.38-7.79 1.24-13.73 7.78-20.54 11.55-2.33 1.29-4.71 2.37-7.43 2.3-1.52-.04-3.02-.45-4.52-.64-2.34-.29-4.57-.22-6.15 1.73-.38.48-.31 2.5.37 2.5Zm473.49 36.44c10.23 0 182.43 1.13 193.25.79.78-.02 1.19-1.17.42-1.55-6.82-3.38-14.56-2.7-21.65-5.09-4.17-1.41-6.73-4.13-9.63-7.26a19.91 19.91 0 0 0-8.96-5.85 19 19 0 0 0-9.76-.31c-3.49.83-6.53 2.83-9.86 4.09-8.27 3.12-16.31.16-22.22-5.97-4.87-5.04-9.66-9.81-16.28-12.52-5.54-2.28-11.7-2.75-17.25-.24-6.32 2.86-10.65 8.62-16.58 12.08-7.03 4.11-15.44 3.14-23.21 4.38-7.79 1.24-13.73 7.78-20.54 11.55-2.33 1.29-4.71 2.37-7.43 2.3-1.52-.04-3.02-.45-4.52-.64-2.34-.29-4.57-.22-6.15 1.73-.38.48-.31 2.5.37 2.5ZM270.45 76.85c10.6 0 275.14-1.84 349.87-1.84 5.23 0-1.38-9.05-4.26-9.68-9.19-2.01-18.76-2.12-28.1-3.08a92.09 92.09 0 0 1-26.78-6.71c-7.35-3.1-14.69-6.69-22.65-7.93-15.39-2.41-28.9 5.93-43.34 9.61-9.38 2.39-17.9 1.43-26.25-3.59-6.68-4-12.74-8.81-19.72-12.34-26.51-13.39-58.79-14.62-86.45-3.96a100.99 100.99 0 0 0-18.91 9.68c-7.05 4.63-13.13 10.54-20.21 15.11-15.67 10.14-35.04 6.84-52.13 12.65-.94.31-2 2.08-1.08 2.08ZM592.09 292c14.02 0 249.87 1.55 264.69 1.08 1.07-.03 1.64-1.6.58-2.12-9.34-4.63-19.94-3.7-29.65-6.97-5.71-1.92-9.22-5.66-13.19-9.94-3.42-3.71-7.4-6.54-12.27-8.01a25.99 25.99 0 0 0-13.36-.42c-4.79 1.14-8.94 3.88-13.51 5.61-11.33 4.28-22.34.21-30.43-8.17-6.67-6.91-13.23-13.43-22.3-17.15-7.59-3.12-16.03-3.77-23.63-.33-8.65 3.92-14.59 11.8-22.71 16.54-9.63 5.63-21.15 4.3-31.79 6-10.67 1.7-18.81 10.66-28.14 15.82-3.19 1.77-6.45 3.24-10.17 3.15-2.08-.05-4.13-.62-6.19-.87-3.21-.4-6.26-.3-8.42 2.37-.53.65-.42 3.42.5 3.42ZM98.72 456.67c14.02 0 249.87 1.55 264.69 1.08 1.07-.03 1.64-1.6.58-2.12-9.34-4.63-19.94-3.7-29.65-6.97-5.71-1.92-9.22-5.66-13.19-9.94-3.42-3.71-7.4-6.54-12.27-8.01a25.99 25.99 0 0 0-13.36-.42c-4.79 1.14-8.94 3.88-13.51 5.61-11.33 4.28-22.34.21-30.43-8.17-6.67-6.91-13.23-13.43-22.3-17.15-7.59-3.12-16.03-3.77-23.63-.33-8.65 3.92-14.59 11.8-22.71 16.54-9.63 5.63-21.15 4.3-31.79 6-10.67 1.7-18.81 10.66-28.14 15.82-3.19 1.77-6.45 3.24-10.17 3.15-2.08-.05-4.13-.62-6.19-.87-3.21-.4-6.26-.3-8.42 2.37-.53.65-.42 3.42.5 3.42ZM37.49 227.52c10.23 0 182.43 1.13 193.25.79.78-.02 1.19-1.17.42-1.55-6.82-3.38-14.56-2.7-21.65-5.09-4.17-1.41-6.73-4.13-9.63-7.26a19.91 19.91 0 0 0-8.96-5.85 19 19 0 0 0-9.76-.31c-3.49.83-6.53 2.83-9.86 4.09-8.27 3.12-16.31.16-22.22-5.97-4.87-5.04-9.66-9.81-16.28-12.52-5.54-2.28-11.7-2.75-17.25-.24-6.32 2.86-10.65 8.62-16.58 12.08-7.03 4.11-15.44 3.14-23.21 4.38-7.79 1.24-13.73 7.78-20.54 11.55-2.33 1.29-4.71 2.37-7.43 2.3-1.52-.04-3.02-.45-4.52-.64-2.34-.29-4.57-.22-6.15 1.73-.38.48-.31 2.5.37 2.5Zm312.19 122.33c10.23 0 182.43 1.13 193.25.79.78-.02 1.19-1.17.42-1.55-6.82-3.38-14.56-2.7-21.65-5.09-4.17-1.41-6.73-4.13-9.63-7.26a19.91 19.91 0 0 0-8.96-5.85 19 19 0 0 0-9.76-.31c-3.49.83-6.53 2.83-9.86 4.09-8.27 3.12-16.31.16-22.22-5.97-4.87-5.04-9.66-9.81-16.28-12.52-5.54-2.28-11.7-2.75-17.25-.24-6.32 2.86-10.65 8.62-16.58 12.08-7.03 4.11-15.44 3.14-23.21 4.38-7.79 1.24-13.73 7.78-20.54 11.55-2.33 1.29-4.71 2.37-7.43 2.3-1.52-.04-3.02-.45-4.52-.64-2.34-.29-4.57-.22-6.15 1.73-.38.48-.31 2.5.37 2.5Zm345.58 95.57c10.23 0 182.43 1.13 193.25.79.78-.02 1.19-1.17.42-1.55-6.82-3.38-14.56-2.7-21.65-5.09-4.17-1.41-6.73-4.13-9.63-7.26a19.91 19.91 0 0 0-8.96-5.85 19 19 0 0 0-9.76-.31c-3.49.83-6.53 2.83-9.86 4.09-8.27 3.12-16.31.16-22.22-5.97-4.87-5.04-9.66-9.81-16.28-12.52-5.54-2.28-11.7-2.75-17.25-.24-6.32 2.86-10.65 8.62-16.58 12.08-7.03 4.11-15.44 3.14-23.21 4.38-7.79 1.24-13.73 7.78-20.54 11.55-2.33 1.29-4.71 2.37-7.43 2.3-1.52-.04-3.02-.45-4.52-.64-2.34-.29-4.57-.22-6.15 1.73-.38.48-.31 2.5.37 2.5Zm261.13 498.7c-1.28-.53-1.84 1.55-.57 2.08a7 7 0 0 1 4.07 8.45c-.35 1.34 1.72 1.91 2.08.57a9.2 9.2 0 0 0-5.57-11.1Zm9.42-2.01a16.48 16.48 0 0 0-1.24 9.52c.22 1.36 2.29.79 2.08-.57a13.95 13.95 0 0 1 1.03-7.86c.56-1.26-1.3-2.35-1.86-1.09Zm789.74 15.59c-1.28-.53-1.84 1.55-.57 2.08a7 7 0 0 1 4.07 8.45c-.35 1.34 1.72 1.91 2.08.57a9.2 9.2 0 0 0-5.57-11.1Zm9.42-2.01a16.48 16.48 0 0 0-1.24 9.52c.22 1.36 2.29.79 2.08-.57a13.95 13.95 0 0 1 1.03-7.86c.56-1.26-1.3-2.35-1.86-1.09Zm-598.87-9.78c-1.28-.53-1.84 1.55-.57 2.08a7 7 0 0 1 4.07 8.45c-.35 1.34 1.72 1.91 2.08.57a9.2 9.2 0 0 0-5.57-11.1Zm9.42-2.01a16.48 16.48 0 0 0-1.24 9.52c.22 1.36 2.29.79 2.08-.57a13.95 13.95 0 0 1 1.03-7.86c.56-1.26-1.3-2.35-1.86-1.09Zm117.27 43.6c-1.22-.65-2.31 1.21-1.09 1.86a6.63 6.63 0 0 1 3.56 6.52c-.11 1.38 2.04 1.37 2.15 0a8.73 8.73 0 0 0-4.63-8.38Zm6.41-3.37c-.65-1.22-2.51-.14-1.86 1.09a17.24 17.24 0 0 1 2.03 9.2c-.07 1.38 2.08 1.38 2.15 0 .19-3.62-.61-7.1-2.33-10.29Zm4.99 1.43a11.21 11.21 0 0 0-1.37 6.87c.17 1.36 2.32 1.37 2.15 0a9.32 9.32 0 0 1 1.08-5.79c.67-1.21-1.19-2.3-1.86-1.09Zm583.26-52.84c-1.22-.65-2.31 1.21-1.09 1.86a6.63 6.63 0 0 1 3.56 6.52c-.11 1.38 2.04 1.37 2.15 0a8.74 8.74 0 0 0-4.63-8.38Zm6.41-3.37c-.65-1.22-2.51-.14-1.86 1.09a17.25 17.25 0 0 1 2.03 9.21c-.07 1.38 2.08 1.38 2.15 0 .19-3.62-.61-7.1-2.33-10.29Zm4.99 1.43a11.21 11.21 0 0 0-1.37 6.87c.17 1.36 2.32 1.37 2.15 0a9.32 9.32 0 0 1 1.08-5.79c.67-1.21-1.19-2.3-1.86-1.09Zm-438.89 47.39c1.2-.7 2.28 1.16 1.09 1.86a8.76 8.76 0 0 0-4.33 8.11c.07 1.38-2.08 1.38-2.15 0a10.89 10.89 0 0 1 5.39-9.97Zm-7.89 5.15.74 4.33c.23 1.36-1.84 1.94-2.08.57l-.74-4.33c-.23-1.36 1.84-1.94 2.08-.57Zm-404.51 7.09c-1.2-.7-2.28 1.16-1.09 1.86a8.76 8.76 0 0 1 4.33 8.11c-.07 1.38 2.08 1.38 2.15 0 .21-4.09-1.87-7.9-5.39-9.97Zm7.89 5.15-.74 4.33c-.23 1.36 1.84 1.94 2.08.57l.74-4.33c.23-1.36-1.84-1.94-2.08-.57Zm32.3 9.82c-1.06-.88-2.59.64-1.52 1.52a9.98 9.98 0 0 1 3.72 8.43c-.07 1.38 2.08 1.38 2.15 0 .2-3.84-1.39-7.5-4.35-9.95Zm623.9-12.4c1.06-.88 2.59.64 1.52 1.52a9.98 9.98 0 0 0-3.72 8.43c.07 1.38-2.08 1.38-2.15 0-.2-3.84 1.39-7.5 4.35-9.95Zm-79.75-37.88a12.76 12.76 0 0 0-3.42 11.39c.25 1.36 2.32.78 2.08-.57a10.5 10.5 0 0 1 2.87-9.29c.97-1-.56-2.52-1.52-1.52Zm-7.85 1.18v7.22c0 1.39 2.15 1.39 2.15 0v-7.22c0-1.39-2.15-1.39-2.15 0Zm11.52 2.27a6.63 6.63 0 0 0-3.04 5.85c.06 1.38 2.22 1.39 2.15 0a4.46 4.46 0 0 1 1.98-4c1.15-.76.07-2.63-1.09-1.86Zm-227.43-4.34a12.76 12.76 0 0 0-3.42 11.39c.25 1.36 2.32.78 2.08-.57a10.5 10.5 0 0 1 2.87-9.29c.97-.99-.56-2.52-1.52-1.52Zm-7.85 1.18v7.22c0 1.39 2.15 1.39 2.15 0v-7.22c0-1.39-2.15-1.39-2.15 0Zm11.52 2.28a6.63 6.63 0 0 0-3.04 5.85c.06 1.38 2.22 1.39 2.15 0a4.43 4.43 0 0 1 1.98-3.99c1.15-.76.07-2.63-1.09-1.86Z"/><g opacity=".2"><path d="M178.02 171.76c7.8 18.14-73.84 28.51-66.09 55.73 7.8 27.22 192.42 15.56 330.43-1.29 138.01-16.85 483.99-92.03 493.71-62.23 9.72 29.82-139.93 54.44-124.38 81.68 15.55 27.22 313.15 34.21 462.6 7.77 159.17-28.17 232.93-63.1 367.22-63.1 121.84 0 278.48 24.2 278.48 24.2v-50.55s-194.76-19.43-293.88-15.54c-99.15 3.89-174.95 41.47-274.06 53.15-99.15 11.66-343.83 27.22-351.82-1.47-8.03-28.69 137.74-41.32 162.55-60.28 24.77-18.96-27-51.53-126.84-36.94-99.88 14.59-513.87 91.87-610.83 103.53-96.96 11.68-167.85 3.44-150.14-15.05 11.79-12.34 68.54-18.32 75.8-39.39 3.8-11.06-36.44-30.13-161.09-19.92C142.39 135.94 74.07 145.11 0 156.17v38.57c96.35-18.45 174.57-31.06 178.02-22.98ZM0 355.36v43.29a4155.9 4155.9 0 0 0 207.59-10.66c154.37-11.77 335.42-53.31 343.95-42.92 8.49 10.41-134.48 41.05-100.49 63.05 54.99 35.63 390.64-26.4 512.33-36.54 119.31-9.95 450.01 17.52 463.18 18.61-12.94-2.11-349.09-56.24-522.62-36.08-176.91 20.54-315.61 49.18-317.03 32.06-1.42-17.14 108.98-29.17 144.38-49.98 35.37-20.8-28.34-37.5-118.92-38.76-90.55-1.27-197.41 38.01-379.32 50.2A3551.66 3551.66 0 0 1 0 355.36Z"/><path d="M1919.99 101.72V48.76s-149.56-16.33-236.1-11.08c-86.54 5.25-328.86 62.24-377.18 64.04-48.32 1.8 114.67-25.02 100.96-52.96-13.7-27.94-100.49-31.24-168.76-11.67-53.43 15.31-122.88 27.41-190.39 27.94-41.43.33-83.66-21.27-83.66-21.27s22.53 28.96 100.96 32.11c136.3 5.47 252.17-33.16 263.95-23.35 18.03 15.01-119.72 31.48-117.55 58.58 2.16 27.1 51.53 29.05 102.24 25.65 58.03-3.89 277.82-56.71 352.82-59.63 75-2.92 252.69 24.6 252.69 24.6Z"/></g></g><path fill="#455a64" d="M2132.62 696.03s-94.12-140.96-101.63-145.68c-7.51-4.72-70.53-71.21-75.56-75.15s-89.42-152.4-96.6-160.95c-4.33-5.16-45.9-31.95-49.25-38.13-4.79-8.84-46.02-92.26-53.02-92.02-9.25.32-130.18 205.9-132.06 209.8-1.88 3.9-38.54 39.41-46.01 46.05-7.47 6.64-61.84 120.99-70.6 129.59-12.79 12.56-60.02 49.65-63.77 54.1-3.75 4.45-36.41 72.35-36.41 72.35l724.91.05Z"/><path fill="#fff" d="M2132.62 696.03s-94.12-140.96-101.63-145.68c-7.51-4.72-70.53-71.21-75.56-75.15s-89.42-152.4-96.6-160.95c-4.33-5.16-45.9-31.95-49.25-38.13-4.79-8.84-46.02-92.26-53.02-92.02-9.25.32-130.18 205.9-132.06 209.8-1.88 3.9-38.54 39.41-46.01 46.05-7.47 6.64-61.84 120.99-70.6 129.59-12.79 12.56-60.02 49.65-63.77 54.1-3.75 4.45-36.41 72.35-36.41 72.35l724.91.05Z" opacity=".4"/><g fill="#fff" opacity=".1"><path d="M2132.35 695.75h-632.97l23.9-13.19 22.74-7.8 45.61-28.03 44.9-7.07 14.19-11.97 42.03-23.1 26.56-40.65-26.01.76-15.3 4.22-22.28 19.93 22.54-29.11 16.7-18.35-24.77 13.99-28.1 18.53 28.1-28.73 32.15-24.68 31.8-31.54v-13.02l-8.02 5.58-17.77 8.59-25.36 4.92 27-11.28 24.15-21.67 5.44-13.57-9.54 8.67-22.13 12.7 24.05-22.25 26.56-32.76 1.82-11.16-59.58 15.89-12.6 5.68-28.82 18.87 16.42-20.51 17.26-15.9 25.47-19.9 21.44-35.45-14.08 12.88 8.33-14.16 11.7-14.44-9.41 6.36-18.66 17.62 16.37-24.56 15.21-13 19.21-18.72 2.03-14.81h-14.13l-15.53 7.7-2.61 4.1-27.83 26.38 21.42-28.36 1.67-10.39 10.04-18.46 8.03-29.23-9.64 2.12-11.5 7.7 12.07-14.44 4.08-11.37-7.43 8.48-21.47 21.97 19.83-28.33 18.86-43.33h.02l.52.12c8.28 3.32 47.8 83.27 52.49 91.9 3.35 6.17 44.93 32.97 49.26 38.13 7.18 8.55 91.58 157.01 96.6 160.96 5.04 3.93 68.05 70.42 75.57 75.13 7.3 4.61 94.83 138.52 101.36 145.42Z"/><path d="m1692.2 362.08-33.95 21.39-19.73 28.9 53.68-50.29zm-16.7 143.34-16.69 20.42-22.27 15.55 26.16-11.06 12.8-24.91zm-36.98 96.8-18.67 20.68-35.07 17.76 28.67-21.39 25.07-17.05zm-81.84 38.44-23.73 22.54-17.26 3.46 40.99-26zm86.24-154.25-33.01 13.77-25.13 39.48 31.32-31.95 26.82-21.3z"/></g><path fill="#fff" d="M2132.49 695.88h-17.53c-4.82-4.64-92.66-127.67-100.03-132.29-7.49-4.72-90.77-84.45-95.79-88.39-5.04-3.94-67.37-146.67-74.55-155.21-4.34-5.16-41.58-33.79-44.91-39.97-4.79-8.85-36.14-96.17-43.13-95.92v-.02h.04c7.07 0 48.2 83.21 52.98 92.04 3.35 6.17 44.91 32.97 49.26 38.11 7.18 8.58 91.56 157.03 96.6 160.97 5.03 3.94 68.05 70.44 75.56 75.14 7.38 4.63 96.9 140.7 101.5 145.54Z" opacity=".6"/><path fill="#ffc727" d="M2132.39 695.81h-555.73s39.78-26.5 43.63-27.8c3.86-1.3 45.83-40.51 46.43-43.59.61-3.11 51.95-58.14 52.6-60.48.65-2.34-17.17-41.57-16.96-43.44.22-1.86 24.7-29.37 25.61-31.93.9-2.58 33.28-73.39 30.57-73.7-2.71-.32-55.66 6.08-57.75 4.72-2.09-1.36 68.44-113.98 67.85-115.21-.6-1.25-26.13-6.19-27.63-7.12-1.5-.93 12.32-97.92 15.53-113.15l.6.11c8.38 3.61 47.76 83.28 52.44 91.91 3.34 6.17 44.91 32.96 49.24 38.13 7.19 8.55 91.58 157.01 96.61 160.94 5.02 3.94 68.05 70.45 75.55 75.15 7.33 4.61 95.43 139.16 101.41 145.47Z"/><path fill="#fff" d="M2132.39 695.81h-555.73s39.78-26.5 43.63-27.8c3.86-1.3 45.83-40.51 46.43-43.59.61-3.11 51.95-58.14 52.6-60.48.65-2.34-17.17-41.57-16.96-43.44.22-1.86 24.7-29.37 25.61-31.93.9-2.58 33.28-73.39 30.57-73.7-2.71-.32-55.66 6.08-57.75 4.72-2.09-1.36 68.44-113.98 67.85-115.21-.6-1.25-26.13-6.19-27.63-7.12-1.5-.93 12.32-97.92 15.53-113.15l.6.11c8.38 3.61 47.76 83.28 52.44 91.91 3.34 6.17 44.91 32.96 49.24 38.13 7.19 8.55 91.58 157.01 96.61 160.94 5.02 3.94 68.05 70.45 75.55 75.15 7.33 4.61 95.43 139.16 101.41 145.47Z" opacity=".8"/><g fill="#fff" opacity=".6"><path d="M2132.39 695.81s-105.75-140.51-105.31-142.6-79.47-70.72-82.09-74.39c-2.63-3.67-92.86-140.55-92.86-140.55s69.2 140.9 69.35 142.36c.15 1.46 34.23 60.01 34.23 60.01l-69.42-86.08-29.63-63.94s22.29 69.43 22.13 72.83c-.16 3.4 54.67 92.97 54.67 92.97l3.84 22.11-46.86-44.42-45.81-70.66s35.01 76.98 36.3 79.41c1.29 2.43 25.79 67.09 25.79 67.09l-7.39 33.12-76.37-47.7-12.94-48.46-15.77-64.92s8.04 69.79 8.47 73.19c.43 3.4 7.35 50.89 8.21 52.83.86 1.94 20.2 33.79 20.2 33.79s-34.95-29.9-34.67-31.36c.28-1.46-7.02-47.22-7.02-47.22s-.43 49.09-.43 51.07 13.76 41.87 13.76 41.87l-41.27-33.94-12.9-29.2s6.45 43.54 7.31 47.01c.86 3.47-20.63 46.25-20.63 46.25l-17.41 9.54h414.54Z"/><path d="m1808.7 310.1 25.59 83.88 25.23 34.07-50.82-117.95zm-31.38 131.59-26.48 61.35v52.33l26.48-113.68zm34.25 8.39.76 52.64 32.29 65.18-23.28-66.86-9.77-50.96zm-123.39 203.85 15.67-34.34 23.83-27.73-39.5 62.07zm86.16-408.83v39.45l15.13 34.59-15.13-74.04z"/></g><path fill="#455a64" d="M1229.64 696.03h556.17s-31.82-32.59-35.78-34.04c-3.96-1.46-65.67-33.39-69.65-34.26-3.98-.88-42.04-71.11-46.28-72.2-4.24-1.09-43.55-24.4-43.55-24.4s-44.96-77.22-46.09-80.86c-1.13-3.64-16.12-38.61-16.97-40.79-.85-2.19-26.86-21.49-28.56-22.22-1.7-.73-12.77 19.67-13.88 21.12-1.11 1.46-49.3 38.97-51.64 40.43-2.34 1.46-43.62 87.77-47.3 90.69-3.68 2.92-65.45 39.16-68.28 40.99-2.83 1.82-27.57 65.56-30.11 66.65-2.54 1.09-37.04 26.95-39.87 28.41-2.83 1.46-18.21 20.49-18.21 20.49Z"/><path fill="#fff" d="M1229.64 696.03h556.17s-31.82-32.59-35.78-34.04c-3.96-1.46-65.67-33.39-69.65-34.26-3.98-.88-42.04-71.11-46.28-72.2-4.24-1.09-43.55-24.4-43.55-24.4s-44.96-77.22-46.09-80.86c-1.13-3.64-16.12-38.61-16.97-40.79-.85-2.19-26.86-21.49-28.56-22.22-1.7-.73-12.77 19.67-13.88 21.12-1.11 1.46-49.3 38.97-51.64 40.43-2.34 1.46-43.62 87.77-47.3 90.69-3.68 2.92-65.45 39.16-68.28 40.99-2.83 1.82-27.57 65.56-30.11 66.65-2.54 1.09-37.04 26.95-39.87 28.41-2.83 1.46-18.21 20.49-18.21 20.49Z" opacity=".4"/><g fill="#fff" opacity=".1"><path d="M1785.55 695.76h-460.69l16.55-8.28 12.16-6.48 31.77-23.61-24.22 6.01 17.16-11.29 18.75-8.08 17.01-19.16 5.11-3.65-6.07 1.97-10.64 2.97-11.4-.7 11.66-5.52 6.59-7.48 23.73-16.99-24.08 5.66-33.57 27.85 20.39-25.31 26.61-21.92 38.71-13.98 63.17-48.48-38.65-13.36-15.58 7.44-35.31 31.64 24.5-38.14 40.79-44.04 15.06-28.51-21.53 2.17-13.7 3.49-22.98 23.6 5.24-10.52 8.44-10.91 15.08-12.8-7.8 2.26-19.42 14.43c.96-.92 31.42-29.89 31.42-31.55s9.13-27.24 9.13-27.24c1.69.73 27.71 20.03 28.57 22.22.84 2.17 15.82 37.15 16.97 40.78 1.13 3.65 46.08 80.86 46.08 80.86s39.31 23.32 43.55 24.41c4.24 1.09 42.3 71.33 46.28 72.2 3.98.88 65.7 32.81 69.66 34.27 3.75 1.37 32.51 30.7 35.52 33.77Z"/><path d="m1454.06 479.21-19.51 16.56-11.23 18.63 30.74-35.19zm-45.78 81.39-20.68 16.01-25.13 12.12 28.15-4.35 17.66-23.78zm12.33-19.09-21.04 18.7 11.66-6.01 9.38-12.69zm-58.58 90.85-30.31 22.55-18.82 22.32 21.03-17.78 28.1-27.09zm-5.04 18.06-16.47 12.13-6.59 10.01 23.06-22.14z"/></g><path fill="#ffc727" d="M1405 667.35c-.08-.85-2.19-12.14-1.94-14.15.24-2.04 16.22-27.92 16.46-28.77.26-.85 46.89-31.21 47.41-32.33.5-1.14-7.1-23.07-5.84-24.32 1.26-1.27 50.7-49.03 50.7-50.44s-29.91-9.98-29.91-11.12 28.38-66.87 28.12-68.01c-.24-1.14-16.48-.56-16.48-1.7s2.79-33.86 5.4-49.25c1.71.73 27.71 20.03 28.57 22.22.85 2.17 15.84 37.15 16.97 40.78 1.13 3.65 46.09 80.86 46.09 80.86s39.3 23.32 43.55 24.41c4.24 1.09 42.3 71.33 46.28 72.2 3.98.88 65.7 32.81 69.65 34.27 3.96 1.46 35.79 34.05 35.79 34.05h-414.69s33.87-27.77 33.87-28.68Z"/><path fill="#fff" d="M1405 667.35c-.08-.85-2.19-12.14-1.94-14.15.24-2.04 16.22-27.92 16.46-28.77.26-.85 46.89-31.21 47.41-32.33.5-1.14-7.1-23.07-5.84-24.32 1.26-1.27 50.7-49.03 50.7-50.44s-29.91-9.98-29.91-11.12 28.38-66.87 28.12-68.01c-.24-1.14-16.48-.56-16.48-1.7s2.79-33.86 5.4-49.25c1.71.73 27.71 20.03 28.57 22.22.85 2.17 15.84 37.15 16.97 40.78 1.13 3.65 46.09 80.86 46.09 80.86s39.3 23.32 43.55 24.41c4.24 1.09 42.3 71.33 46.28 72.2 3.98.88 65.7 32.81 69.65 34.27 3.96 1.46 35.79 34.05 35.79 34.05h-414.69s33.87-27.77 33.87-28.68Z" opacity=".8"/><g fill="#fff" opacity=".6"><path d="M1785.82 696.03s-33.88-26.01-37.56-28.4c-31.81-20.59-86.43-42.11-86.93-43.46-.87-2.31-32.48-53.69-32.19-55.08.3-1.39-39.29-29.68-41.06-32.12-1.77-2.44-47.39-85.51-47.39-85.51s40.58 93.5 40.68 94.47c.1.97 22.6 27.78 22.6 27.78l-37.45-38-20-42.49s15.04 46.13 14.94 48.39c-.11 2.26 36.9 61.78 36.9 61.78l2.59 14.69-31.63-29.51-30.92-46.95s23.63 51.15 24.5 52.77c.87 1.62 17.41 44.58 17.41 44.58l-4.99 22.01-51.55-31.7-8.73-32.2-10.65-43.14s5.42 46.37 5.71 48.63c.29 2.26 4.96 33.81 5.54 35.11.58 1.29 13.64 22.45 13.64 22.45s-23.59-19.87-23.4-20.84c.19-.97-4.74-31.37-4.74-31.37s-.29 32.62-.29 33.94 9.28 27.82 9.28 27.82l-27.85-22.55-8.7-19.4s4.35 28.93 4.93 31.24c.58 2.31-13.93 30.73-13.93 30.73l-11.75 6.34h332.99Z"/><path d="m1521.84 431.61 7.77 65.9 12.51 29.3-20.28-95.2zm-29.53 116.72-13.39 25.44v21.7l13.39-47.14zm23.78-15.58.51 34.98 21.79 43.31-15.71-44.42-6.59-33.87zm-78.22 131.92 3.41-24.97 9.97-22.43-13.38 47.4z"/></g><path fill="#37474f" d="M518.77 744.29h-48.92l5.73-25.26c4.62-.3 10.42-1.48 15.63-4.88l-15.16 2.82 6.99-30.88a28.65 28.65 0 0 0 6.23-3.97l-5.73 1.81.93-4.11a29.67 29.67 0 0 0 8.63-5.71l-8.04 3.14 9.26-40.87 5.23 23.09-4.7-1.17s1.91 1.36 5.07 2.81l7.51 33.09-5.45-1.36s2.23 1.59 5.85 3.17l5.2 22.91-10.63-2.65c.27.19 4.75 3.29 11.17 5.05l.9 3.99-16.33-4.07s7.25 5.16 16.79 6.12l1.29 5.71-5.43-1.35s2.23 1.59 5.85 3.17l2.13 9.39Z"/><path fill="#263238" d="M509.77 711.6c-2.71 1.03-12.73 5.11-14.89 6.3v-1.37l7.27-4.24c2.6-1.51 5.4-2.87 7.82-4.65.12-.09.05-.33-.11-.26-2.67 1.11-5.16 2.77-7.65 4.23-2.46 1.44-4.9 2.93-7.33 4.44l-.04-10.47a82.78 82.78 0 0 0 11.42-5.81c.12-.07.04-.3-.1-.24a83.7 83.7 0 0 0-11.32 5.58c-.01-1.81.06-15.78-.39-33.47 2.38-1.2 4.82-2.26 7.2-3.46.16-.08.05-.35-.12-.29-2.41.94-4.73 2.06-7.1 3.1-.13-4.82-.31-9.64-.61-14.45 0-.16-.24-.16-.25 0-.33 8.95-.31 26.26-.19 35.21-2.46-1.97-5.09-3.7-7.59-5.61-.1-.07-.19.09-.1.16 2.62 1.99 5.07 4.2 7.7 6.19l.02 1.52c-2.67-1.22-5.38-2.36-8.08-3.51-.21-.09-.4.21-.18.32 2.75 1.32 5.49 2.66 8.27 3.91.06 4.44.47 20.44.63 28.18a611.9 611.9 0 0 0-15.23-7.44c-.19-.09-.36.18-.17.29a160.73 160.73 0 0 0 15.41 7.74c.14 6.43.27 14.06.35 20.5 0 .39.61.39.61 0-.09-8.21-.1-17.61-.13-25.81 2.66-.66 12.7-4.96 15.08-6.13.25-.12.07-.55-.19-.45Z"/><path fill="#ffc727" d="M514.94 727.37a36.02 36.02 0 0 1-8.85-2.11l2.52 19.02h10.16l-2.13-9.39c-3.62-1.58-5.85-3.16-5.85-3.16l5.43 1.35-1.29-5.72Zm-1.36-6.03a40.84 40.84 0 0 1-8.46-3.41l.69 5.24 8.66 2.16-.9-3.99Zm-13.67-60.22c-.95-.44-1.79-.87-2.49-1.25l7.56 57.06 8.04 2-5.2-22.91c-3.62-1.58-5.86-3.17-5.86-3.17l5.45 1.36-7.5-33.09Zm-5.6-24.73 2.99 22.53 2.24.56-5.23-23.09z" opacity=".2"/><path fill="#37474f" d="M32.27 741.13h48.92l-5.73-25.26c-4.62-.3-10.42-1.48-15.63-4.88l15.16 2.82L68 682.93a28.65 28.65 0 0 1-6.23-3.97l5.73 1.81-.93-4.11a29.67 29.67 0 0 1-8.63-5.71l8.04 3.14-9.26-40.87-5.23 23.09 4.7-1.17s-1.91 1.36-5.07 2.81l-7.51 33.09 5.45-1.36s-2.23 1.59-5.85 3.17l-5.2 22.91 10.63-2.65c-.27.19-4.75 3.29-11.17 5.05l-.9 3.99 16.33-4.07s-7.25 5.16-16.79 6.12l-1.29 5.71 5.43-1.35s-2.23 1.59-5.85 3.17l-2.13 9.39Z"/><path fill="#263238" d="M41.27 708.44c2.71 1.03 12.73 5.11 14.89 6.3v-1.37l-7.27-4.24c-2.6-1.51-5.4-2.87-7.82-4.65-.12-.09-.05-.33.11-.26 2.67 1.11 5.16 2.77 7.65 4.23 2.46 1.44 4.9 2.93 7.33 4.44l.04-10.47a82.78 82.78 0 0 1-11.42-5.81c-.12-.07-.04-.3.1-.24a83.7 83.7 0 0 1 11.32 5.58c.01-1.81-.06-15.78.4-33.47-2.38-1.2-4.82-2.26-7.2-3.46-.16-.08-.05-.35.12-.29 2.41.94 4.73 2.06 7.1 3.1.13-4.82.31-9.64.61-14.45 0-.16.24-.16.25 0 .33 8.95.31 26.26.19 35.21 2.46-1.97 5.09-3.7 7.59-5.61.1-.07.19.09.1.16-2.62 1.99-5.07 4.2-7.7 6.19l-.02 1.52c2.67-1.22 5.38-2.36 8.08-3.51.21-.09.4.21.18.32-2.75 1.32-5.49 2.66-8.27 3.91-.06 4.44-.47 20.44-.63 28.18a611.9 611.9 0 0 1 15.23-7.44c.19-.09.36.18.17.29a160.73 160.73 0 0 1-15.41 7.74c-.14 6.43-.27 14.06-.35 20.5 0 .39-.61.39-.61 0 .09-8.21.1-17.61.13-25.81-2.66-.66-12.7-4.96-15.08-6.13-.25-.12-.07-.55.19-.45Z"/><path fill="#ffc727" d="m66 674.1-3.5-1.36-5.77-39.5L66 674.1zm1.51 6.68-4.02-1.27-.71-4.83c1.26.77 2.53 1.43 3.79 1.99l.93 4.11ZM75 713.81l-6.68-1.24-4.7-32.18a29.26 29.26 0 0 0 4.38 2.55l6.99 30.88Zm6.19 27.32h-8.7l-3.84-26.33c2.4.62 4.73.93 6.81 1.07l5.73 25.26Z" opacity=".2"/><path fill="#37474f" d="M846.95 759.52h48.92l-5.73-25.26c-4.62-.3-10.42-1.48-15.63-4.88l15.16 2.82-6.99-30.88a28.65 28.65 0 0 1-6.23-3.97l5.73 1.81-.93-4.11a29.67 29.67 0 0 1-8.63-5.71l8.04 3.14-9.26-40.87-5.23 23.1 4.7-1.17s-1.91 1.36-5.07 2.81l-7.51 33.09 5.45-1.36s-2.23 1.59-5.85 3.17l-5.2 22.91 10.63-2.65c-.27.19-4.75 3.29-11.17 5.05l-.9 3.99 16.33-4.07s-7.25 5.16-16.79 6.12l-1.29 5.71 5.43-1.35s-2.23 1.59-5.85 3.17l-2.13 9.39Z"/><path fill="#263238" d="M855.95 726.83c2.71 1.03 12.73 5.11 14.89 6.3v-1.37l-7.27-4.24c-2.6-1.51-5.4-2.87-7.82-4.65-.12-.09-.05-.33.11-.26 2.67 1.11 5.16 2.77 7.65 4.23 2.46 1.44 4.9 2.93 7.33 4.44l.04-10.47a82.78 82.78 0 0 1-11.42-5.81c-.12-.07-.04-.3.1-.24a83.7 83.7 0 0 1 11.32 5.58c.01-1.81-.06-15.78.4-33.47-2.38-1.2-4.82-2.26-7.2-3.46-.16-.08-.05-.35.12-.29 2.41.94 4.73 2.06 7.1 3.1.13-4.82.31-9.64.61-14.45 0-.16.24-.16.25 0 .33 8.95.31 26.26.19 35.21 2.46-1.97 5.09-3.7 7.59-5.61.1-.07.19.09.1.16-2.62 1.99-5.07 4.2-7.7 6.19l-.02 1.52c2.67-1.22 5.38-2.36 8.08-3.51.21-.09.4.21.18.32-2.75 1.32-5.49 2.66-8.27 3.91-.06 4.44-.47 20.44-.63 28.18a611.9 611.9 0 0 1 15.23-7.44c.19-.09.36.18.17.29a160.73 160.73 0 0 1-15.41 7.74c-.14 6.43-.27 14.06-.35 20.5 0 .39-.61.39-.61 0 .09-8.21.1-17.61.13-25.81-2.66-.66-12.7-4.96-15.08-6.13-.25-.12-.07-.55.19-.45Z"/><path fill="#ffc727" d="m880.68 692.49-3.49-1.36-5.77-39.51 9.26 40.87zm1.51 6.68-4.02-1.27-.71-4.83c1.26.77 2.53 1.43 3.79 1.99l.93 4.11Zm7.49 33.03-6.68-1.24-4.7-32.18a29.26 29.26 0 0 0 4.38 2.55l6.99 30.88Zm6.19 27.32h-8.7l-3.84-26.33c2.4.62 4.73.93 6.81 1.07l5.73 25.26Z" opacity=".2"/><path fill="#37474f" d="M1126.08 697.93H1175l-5.73-25.26c-4.62-.3-10.42-1.48-15.63-4.88l15.16 2.82-6.99-30.88a28.65 28.65 0 0 1-6.23-3.97l5.73 1.81-.93-4.11a29.67 29.67 0 0 1-8.63-5.71l8.04 3.14-9.26-40.87-5.23 23.09 4.7-1.17s-1.91 1.36-5.07 2.81l-7.51 33.09 5.45-1.36s-2.23 1.59-5.85 3.17l-5.2 22.91 10.63-2.65c-.27.19-4.75 3.29-11.17 5.05l-.9 3.99 16.33-4.07s-7.25 5.16-16.79 6.12l-1.29 5.71 5.43-1.35s-2.23 1.59-5.85 3.17l-2.13 9.39Z"/><path fill="#263238" d="M1135.08 665.24c2.71 1.03 12.73 5.11 14.89 6.3v-1.37l-7.27-4.24c-2.6-1.51-5.4-2.87-7.82-4.65-.12-.09-.05-.33.11-.26 2.67 1.11 5.16 2.77 7.65 4.23 2.46 1.44 4.9 2.93 7.33 4.43l.04-10.47a82.78 82.78 0 0 1-11.42-5.81c-.12-.07-.04-.3.1-.24a83.7 83.7 0 0 1 11.32 5.58c.01-1.81-.06-15.78.4-33.47-2.38-1.2-4.82-2.26-7.2-3.46-.16-.08-.05-.35.12-.29 2.41.94 4.73 2.06 7.1 3.1.13-4.82.31-9.64.61-14.45 0-.16.24-.16.25 0 .33 8.95.31 26.26.19 35.21 2.46-1.97 5.09-3.7 7.59-5.61.1-.07.19.09.1.16-2.62 1.99-5.07 4.2-7.7 6.19l-.02 1.52c2.67-1.22 5.38-2.36 8.08-3.51.21-.09.4.21.18.32-2.75 1.32-5.49 2.66-8.27 3.91-.06 4.44-.47 20.44-.63 28.18a611.9 611.9 0 0 1 15.23-7.44c.19-.09.36.18.17.29a160.73 160.73 0 0 1-15.41 7.74c-.14 6.43-.27 14.06-.35 20.5 0 .39-.61.39-.61 0 .09-8.21.1-17.61.13-25.81-2.66-.66-12.7-4.96-15.08-6.13-.25-.12-.07-.55.19-.45Z"/><path fill="#ffc727" d="m1159.81 630.9-3.49-1.37-5.77-39.5 9.26 40.87zm1.51 6.68-4.02-1.27-.71-4.83c1.26.77 2.53 1.43 3.79 1.99l.93 4.11Zm7.49 33.03-6.68-1.24-4.7-32.18a29.26 29.26 0 0 0 4.38 2.55l6.99 30.88Zm6.19 27.32h-8.7l-3.84-26.33c2.4.62 4.73.93 6.81 1.07l5.73 25.26Z" opacity=".2"/><path fill="#37474f" d="M363.45 743.02h48.92l-5.73-25.26c-4.62-.3-10.42-1.48-15.63-4.88l15.16 2.82-6.99-30.88a28.65 28.65 0 0 1-6.23-3.97l5.73 1.81-.93-4.11a29.67 29.67 0 0 1-8.63-5.71l8.04 3.14-9.26-40.87-5.23 23.09 4.7-1.17s-1.91 1.36-5.07 2.81l-7.51 33.09 5.45-1.36s-2.23 1.59-5.85 3.17l-5.2 22.91 10.63-2.65c-.27.19-4.75 3.29-11.17 5.05l-.9 3.99 16.33-4.07s-7.25 5.16-16.79 6.12L366 731.8l5.43-1.35s-2.23 1.59-5.85 3.17l-2.13 9.39Z"/><path fill="#263238" d="M372.46 710.33c2.71 1.03 12.73 5.11 14.89 6.3v-1.37l-7.27-4.24c-2.6-1.51-5.4-2.87-7.82-4.65-.12-.09-.05-.33.11-.26 2.67 1.11 5.16 2.77 7.65 4.23 2.46 1.44 4.9 2.93 7.33 4.44l.04-10.47a82.78 82.78 0 0 1-11.42-5.81c-.12-.07-.04-.3.1-.24a83.7 83.7 0 0 1 11.32 5.58c.01-1.81-.06-15.78.4-33.47-2.38-1.2-4.82-2.26-7.2-3.46-.16-.08-.05-.35.12-.29 2.41.94 4.73 2.06 7.1 3.1.13-4.82.31-9.64.61-14.45 0-.16.24-.16.25 0 .33 8.95.31 26.26.19 35.21 2.46-1.97 5.09-3.7 7.59-5.61.1-.07.19.09.1.16-2.62 1.99-5.07 4.2-7.7 6.19l-.02 1.52c2.67-1.22 5.38-2.36 8.08-3.51.21-.09.4.21.18.32-2.75 1.32-5.49 2.66-8.27 3.91-.06 4.44-.47 20.44-.63 28.18a611.9 611.9 0 0 1 15.23-7.44c.19-.09.36.18.17.29a160.73 160.73 0 0 1-15.41 7.74c-.14 6.43-.27 14.06-.35 20.5 0 .39-.61.39-.61 0 .09-8.21.1-17.61.13-25.81-2.66-.66-12.7-4.96-15.08-6.13-.25-.12-.07-.55.19-.45Z"/><path fill="#ffc727" d="m397.18 675.99-3.49-1.37-5.77-39.5 9.26 40.87zm1.52 6.68-4.02-1.27-.71-4.83c1.26.77 2.53 1.43 3.79 1.99l.93 4.11Zm7.48 33.03-6.68-1.24-4.7-32.18a29.26 29.26 0 0 0 4.38 2.55l6.99 30.88Zm6.2 27.32h-8.7l-3.84-26.33c2.4.62 4.73.93 6.81 1.07l5.73 25.26Z" opacity=".2"/><path fill="#37474f" d="M505.26 744.29h38.45l-4.5-19.85c-3.63-.24-8.19-1.16-12.28-3.84l11.92 2.22-5.5-24.27a22.15 22.15 0 0 1-4.89-3.12l4.51 1.43-.73-3.23a23.3 23.3 0 0 1-6.78-4.49l6.32 2.47-7.28-32.12-4.11 18.15 3.69-.92s-1.5 1.07-3.99 2.21l-5.9 26.01 4.28-1.07s-1.76 1.25-4.6 2.49l-4.09 18.01 8.35-2.08c-.21.15-3.73 2.59-8.78 3.97l-.71 3.13 12.83-3.2s-5.7 4.06-13.2 4.81l-1.02 4.49 4.27-1.06s-1.76 1.25-4.6 2.49l-1.67 7.38Z"/><path fill="#263238" d="M512.34 718.6c2.13.81 10 4.02 11.71 4.95v-1.08c-1.9-1.12-3.81-2.22-5.71-3.33-2.05-1.19-4.24-2.25-6.15-3.65-.09-.07-.04-.26.09-.21 2.1.88 4.05 2.17 6.02 3.32 1.94 1.14 3.85 2.31 5.76 3.49l.03-8.23a66.4 66.4 0 0 1-8.98-4.56c-.1-.06-.03-.24.08-.19 3 1.24 6.11 2.7 8.9 4.39 0-1.43-.04-12.41.31-26.31-1.87-.94-3.79-1.77-5.66-2.72-.12-.06-.04-.28.09-.23 1.89.74 3.72 1.62 5.58 2.43.1-3.79.25-7.57.48-11.36 0-.12.19-.13.19 0 .26 7.03.24 20.64.15 27.67 1.93-1.54 4-2.91 5.97-4.41.08-.06.15.07.07.13-2.06 1.57-3.98 3.3-6.05 4.86 0 .4 0 .8-.02 1.19 2.1-.96 4.23-1.85 6.35-2.76.17-.07.31.17.14.25-2.16 1.04-4.31 2.09-6.5 3.07-.05 3.49-.37 16.06-.5 22.15 3.96-2 7.95-3.96 11.97-5.85.15-.07.29.14.13.23a125.66 125.66 0 0 1-12.11 6.08c-.11 5.06-.21 11.05-.28 16.11 0 .31-.48.31-.48 0 .07-6.45.08-13.84.1-20.29-2.09-.52-9.98-3.9-11.85-4.82-.19-.1-.06-.43.15-.35Z"/><path fill="#ffc727" d="M539.21 724.44c-1.49-.1-3.14-.31-4.85-.72l3.16 20.57h6.19l-4.5-19.85Zm-5.86-25.89a22.35 22.35 0 0 1-3.13-1.78l3.87 25.16 4.76.89-5.5-24.27Zm-1.12-4.92c-.9-.4-1.81-.87-2.71-1.4l.57 3.73 2.86.91-.72-3.23Zm-7.74-34.15 4.79 31.15 2.49.98-7.28-32.13z" opacity=".2"/><path fill="#37474f" d="M63.52 741.13h38.45l-4.5-19.85c-3.63-.24-8.19-1.16-12.28-3.84l11.92 2.22-5.5-24.27a22.15 22.15 0 0 1-4.89-3.12l4.51 1.43-.73-3.23a23.3 23.3 0 0 1-6.78-4.49l6.32 2.47-7.28-32.12-4.11 18.15 3.69-.92s-1.5 1.07-3.99 2.21l-5.9 26.01 4.28-1.07s-1.76 1.25-4.6 2.49l-4.09 18.01 8.35-2.08c-.21.15-3.73 2.59-8.78 3.97l-.71 3.13 12.83-3.2s-5.7 4.06-13.2 4.81l-1.02 4.49 4.27-1.06s-1.76 1.25-4.6 2.49l-1.67 7.38Z"/><path fill="#263238" d="M70.59 715.44c2.13.81 10 4.02 11.71 4.95v-1.08c-1.9-1.12-3.81-2.22-5.71-3.33-2.05-1.19-4.24-2.25-6.15-3.65-.09-.07-.04-.26.09-.21 2.1.88 4.05 2.17 6.02 3.32 1.94 1.14 3.85 2.31 5.76 3.49l.03-8.23a66.4 66.4 0 0 1-8.98-4.56c-.1-.06-.03-.24.08-.19 3 1.24 6.11 2.7 8.9 4.39 0-1.43-.04-12.41.31-26.31-1.87-.94-3.79-1.77-5.66-2.72-.12-.06-.04-.28.09-.23 1.89.74 3.72 1.62 5.58 2.43.1-3.79.25-7.57.48-11.36 0-.12.19-.13.19 0 .26 7.03.24 20.64.15 27.67 1.93-1.54 4-2.91 5.97-4.41.08-.06.15.07.07.13-2.06 1.57-3.98 3.3-6.05 4.86 0 .4 0 .8-.02 1.19 2.1-.96 4.23-1.85 6.35-2.76.17-.07.31.17.14.25-2.16 1.04-4.31 2.09-6.5 3.07-.05 3.49-.37 16.06-.5 22.15 3.96-2 7.95-3.96 11.97-5.85.15-.07.29.14.13.23a125.66 125.66 0 0 1-12.11 6.08c-.11 5.06-.21 11.05-.28 16.11 0 .31-.48.31-.48 0 .07-6.45.08-13.84.1-20.29-2.09-.52-9.98-3.9-11.85-4.82-.19-.1-.06-.43.15-.35Z"/><path fill="#ffc727" d="M97.46 721.28c-1.49-.1-3.14-.31-4.85-.72l3.16 20.57h6.19l-4.5-19.85Zm-5.86-25.89a22.35 22.35 0 0 1-3.13-1.78l3.87 25.16 4.76.89-5.5-24.27Zm-1.11-4.92c-.9-.4-1.81-.87-2.71-1.4l.57 3.73 2.86.91-.72-3.23Zm-7.74-34.14 4.78 31.15 2.49.97-7.27-32.12z" opacity=".2"/><path fill="#37474f" d="M816.74 749.65h38.45l-4.5-19.85c-3.63-.24-8.19-1.16-12.28-3.84l11.92 2.22-5.5-24.27a22.15 22.15 0 0 1-4.89-3.12l4.51 1.43-.73-3.23a23.3 23.3 0 0 1-6.78-4.49l6.32 2.47-7.28-32.12-4.11 18.15 3.69-.92s-1.5 1.07-3.99 2.21l-5.9 26.01 4.28-1.07s-1.76 1.25-4.6 2.49l-4.09 18.01 8.35-2.08c-.21.15-3.73 2.59-8.78 3.97l-.71 3.13 12.83-3.2s-5.7 4.06-13.2 4.81l-1.02 4.49 4.27-1.06s-1.76 1.25-4.6 2.49l-1.67 7.38Z"/><path fill="#263238" d="M823.82 723.96c2.13.81 10 4.02 11.71 4.95v-1.08c-1.9-1.12-3.81-2.22-5.71-3.33-2.05-1.19-4.24-2.25-6.15-3.65-.09-.07-.04-.26.09-.21 2.1.88 4.05 2.17 6.02 3.32 1.94 1.14 3.85 2.31 5.76 3.49l.03-8.23a66.4 66.4 0 0 1-8.98-4.56c-.1-.06-.03-.24.08-.19 3 1.24 6.11 2.7 8.9 4.39 0-1.43-.04-12.41.31-26.31-1.87-.94-3.79-1.77-5.66-2.72-.12-.06-.04-.28.1-.22 1.89.74 3.72 1.62 5.58 2.43.1-3.79.25-7.57.48-11.36 0-.12.19-.13.19 0 .26 7.03.24 20.64.15 27.67 1.93-1.54 4-2.91 5.97-4.41.08-.06.15.07.07.13-2.06 1.57-3.98 3.3-6.05 4.86 0 .4 0 .8-.02 1.19 2.1-.96 4.23-1.85 6.35-2.76.17-.07.31.17.14.25-2.16 1.04-4.31 2.09-6.5 3.07-.05 3.49-.37 16.06-.5 22.15 3.96-2 7.95-3.96 11.97-5.85.15-.07.29.14.13.23a125.66 125.66 0 0 1-12.11 6.08c-.11 5.06-.21 11.05-.28 16.11 0 .31-.48.31-.48 0 .07-6.45.08-13.84.1-20.29-2.09-.52-9.98-3.9-11.85-4.82-.19-.1-.06-.43.15-.35Z"/><path fill="#ffc727" d="M850.69 729.79c-1.49-.1-3.14-.31-4.85-.72l3.16 20.57h6.19l-4.5-19.85Zm-5.86-25.88a22.35 22.35 0 0 1-3.13-1.78l3.87 25.16 4.76.89-5.5-24.27Zm-1.11-4.93c-.9-.4-1.81-.87-2.71-1.4l.57 3.73 2.86.91-.72-3.23Zm-7.75-34.14 4.79 31.15 2.49.98-7.28-32.13z" opacity=".2"/><path fill="#37474f" d="M1228.64 676.57h38.45l-4.5-19.85c-3.63-.24-8.19-1.16-12.28-3.84l11.92 2.22-5.5-24.27a22.15 22.15 0 0 1-4.89-3.12l4.51 1.43-.73-3.23a23.3 23.3 0 0 1-6.78-4.49l6.32 2.47-7.28-32.12-4.11 18.15 3.69-.92s-1.5 1.07-3.99 2.21l-5.9 26.01 4.28-1.07s-1.76 1.25-4.6 2.49l-4.09 18.01 8.35-2.08c-.21.15-3.73 2.59-8.78 3.97l-.71 3.13 12.83-3.2s-5.7 4.06-13.2 4.81l-1.02 4.49 4.27-1.06s-1.76 1.25-4.6 2.49l-1.67 7.38Z"/><path fill="#263238" d="M1235.72 650.88c2.13.81 10 4.02 11.71 4.95v-1.08c-1.9-1.12-3.81-2.22-5.71-3.33-2.05-1.19-4.24-2.25-6.15-3.65-.09-.07-.04-.26.09-.21 2.1.88 4.05 2.17 6.02 3.32 1.94 1.14 3.85 2.31 5.76 3.49l.03-8.23a66.4 66.4 0 0 1-8.98-4.56c-.1-.06-.03-.24.08-.19 3 1.24 6.11 2.7 8.9 4.39 0-1.43-.04-12.4.31-26.31-1.87-.94-3.79-1.77-5.66-2.72-.12-.06-.04-.28.09-.23 1.89.74 3.72 1.62 5.58 2.43.1-3.79.25-7.57.48-11.36 0-.12.19-.13.19 0 .26 7.03.24 20.64.15 27.67 1.93-1.54 4-2.91 5.97-4.41.08-.06.15.07.07.13-2.06 1.57-3.98 3.3-6.05 4.86 0 .4 0 .8-.02 1.19 2.1-.96 4.23-1.85 6.35-2.76.17-.07.31.17.14.25-2.16 1.04-4.31 2.09-6.5 3.07-.05 3.49-.37 16.06-.5 22.15 3.96-2 7.95-3.96 11.97-5.85.15-.07.29.14.13.23a125.66 125.66 0 0 1-12.11 6.08c-.11 5.06-.21 11.05-.28 16.11 0 .31-.48.31-.48 0 .07-6.45.08-13.84.1-20.29-2.09-.52-9.98-3.89-11.85-4.82-.19-.1-.06-.43.15-.35Z"/><path fill="#ffc727" d="M1262.59 656.72c-1.49-.1-3.14-.31-4.85-.72l3.16 20.57h6.19l-4.5-19.85Zm-5.86-25.89a22.35 22.35 0 0 1-3.13-1.78l3.87 25.16 4.76.89-5.5-24.27Zm-1.12-4.92c-.9-.4-1.81-.87-2.71-1.4l.57 3.73 2.86.91-.72-3.23Zm-7.74-34.14 4.79 31.15 2.49.97-7.28-32.12z" opacity=".2"/><path fill="#37474f" d="M1081.86 702.44h38.45l-4.5-19.85c-3.63-.24-8.19-1.16-12.28-3.84l11.92 2.22-5.5-24.27a22.15 22.15 0 0 1-4.89-3.12l4.51 1.43-.73-3.23a23.3 23.3 0 0 1-6.78-4.49l6.32 2.47-7.28-32.12-4.11 18.15 3.69-.92s-1.5 1.07-3.99 2.21l-5.9 26.01 4.28-1.07s-1.76 1.25-4.6 2.49l-4.09 18.01 8.35-2.08c-.21.15-3.73 2.59-8.78 3.97l-.71 3.13 12.83-3.2s-5.7 4.06-13.2 4.81l-1.02 4.49 4.27-1.06s-1.76 1.25-4.6 2.49l-1.67 7.38Z"/><path fill="#263238" d="M1088.93 676.75c2.13.81 10 4.02 11.71 4.95v-1.08c-1.9-1.12-3.81-2.22-5.71-3.33-2.05-1.19-4.24-2.25-6.15-3.65-.09-.07-.04-.26.09-.21 2.1.88 4.05 2.17 6.02 3.32 1.94 1.14 3.85 2.31 5.76 3.49l.03-8.23a66.4 66.4 0 0 1-8.98-4.56c-.1-.06-.03-.24.08-.19 3 1.24 6.11 2.7 8.9 4.39 0-1.43-.04-12.41.31-26.31-1.87-.94-3.79-1.77-5.66-2.72-.12-.06-.04-.28.09-.23 1.89.74 3.72 1.62 5.58 2.43.1-3.79.25-7.57.48-11.36 0-.12.19-.13.19 0 .26 7.03.24 20.64.15 27.67 1.93-1.54 4-2.91 5.97-4.41.08-.06.15.07.07.13-2.06 1.57-3.98 3.3-6.05 4.86 0 .4 0 .8-.02 1.19 2.1-.96 4.23-1.85 6.35-2.76.17-.07.31.17.14.25-2.16 1.04-4.31 2.09-6.5 3.07-.05 3.49-.37 16.06-.5 22.15 3.96-2 7.95-3.96 11.97-5.85.15-.07.29.14.13.23a125.66 125.66 0 0 1-12.11 6.08c-.11 5.06-.21 11.05-.28 16.11 0 .31-.48.31-.48 0 .07-6.45.08-13.84.1-20.29-2.09-.52-9.98-3.9-11.85-4.82-.19-.1-.06-.43.15-.35Z"/><path fill="#ffc727" d="M1115.81 682.59c-1.49-.1-3.14-.31-4.85-.72l3.16 20.57h6.19l-4.5-19.85Zm-5.86-25.89a22.35 22.35 0 0 1-3.13-1.78l3.87 25.16 4.76.89-5.5-24.27Zm-1.12-4.92c-.9-.4-1.81-.87-2.71-1.4l.57 3.73 2.86.91-.72-3.23Zm-7.74-34.14 4.79 31.15 2.49.97-7.28-32.12z" opacity=".2"/><path fill="#37474f" d="M949.32 728.78h38.45l-4.5-19.85c-3.63-.24-8.19-1.16-12.28-3.84l11.92 2.22-5.5-24.27a22.15 22.15 0 0 1-4.89-3.12l4.51 1.43-.73-3.23a23.3 23.3 0 0 1-6.78-4.49l6.32 2.47-7.28-32.12-4.11 18.15 3.69-.92s-1.5 1.07-3.99 2.21l-5.9 26.01 4.28-1.07s-1.76 1.25-4.6 2.49l-4.09 18.01 8.35-2.08c-.21.15-3.73 2.59-8.78 3.97l-.71 3.13 12.83-3.2s-5.7 4.06-13.2 4.81l-1.02 4.49 4.27-1.06s-1.76 1.25-4.6 2.49l-1.67 7.38Z"/><path fill="#263238" d="M956.4 703.09c2.13.81 10 4.02 11.71 4.95v-1.08c-1.9-1.12-3.81-2.22-5.71-3.33-2.05-1.19-4.24-2.25-6.15-3.65-.09-.07-.04-.26.09-.21 2.1.88 4.05 2.17 6.02 3.32 1.94 1.14 3.85 2.31 5.76 3.49l.03-8.23a66.4 66.4 0 0 1-8.98-4.56c-.1-.06-.03-.24.08-.19 3 1.24 6.11 2.7 8.9 4.39 0-1.43-.04-12.41.31-26.31-1.87-.94-3.79-1.77-5.66-2.72-.12-.06-.04-.28.09-.22 1.89.74 3.72 1.62 5.58 2.43.1-3.79.25-7.57.48-11.36 0-.12.19-.13.19 0 .26 7.03.24 20.64.15 27.67 1.93-1.54 4-2.91 5.97-4.41.08-.06.15.07.07.13-2.06 1.57-3.98 3.3-6.05 4.86 0 .4 0 .8-.02 1.19 2.1-.96 4.23-1.85 6.35-2.76.17-.07.31.17.14.25-2.16 1.04-4.31 2.09-6.5 3.07-.05 3.49-.37 16.06-.5 22.15 3.96-2 7.95-3.96 11.97-5.85.15-.07.29.14.13.23a125.66 125.66 0 0 1-12.11 6.08c-.11 5.06-.21 11.05-.28 16.11 0 .31-.48.31-.48 0 .07-6.45.08-13.84.1-20.29-2.09-.52-9.98-3.9-11.85-4.82-.19-.1-.06-.43.15-.35Z"/><path fill="#ffc727" d="M983.27 708.93c-1.49-.1-3.14-.31-4.85-.72l3.16 20.57h6.19l-4.5-19.85Zm-5.86-25.89a22.35 22.35 0 0 1-3.13-1.78l3.87 25.16 4.76.89-5.5-24.27Zm-1.12-4.92c-.9-.4-1.81-.87-2.71-1.4l.57 3.73 2.86.91-.72-3.23Zm-7.74-34.14 4.79 31.15 2.49.97-7.28-32.12z" opacity=".2"/><path fill="#37474f" d="M731.6 744.83h-52.68l2.57-13.86c11.04-.72 19.65-8.2 19.65-8.2l-19.21 5.86 7.09-38.21c4.88-2.31 7.99-5.02 7.99-5.02l-7.49 2.28 1.16-6.23c6.56-2.35 11.07-6.18 11.35-6.41l-10.76 3.27 6.71-36.19c2.56-1.58 4.06-2.89 4.06-2.89l-3.74 1.14 6.97-37.56 9.98 53.81-8.67-4.14a32.35 32.35 0 0 0 9.29 7.51s9.4 50.67 9.4 50.67l-14.58-5.62a31.99 31.99 0 0 0 15.14 8.65l.97 5.18-7.84-1.78a28.94 28.94 0 0 0 8.37 4.65l4.28 23.09Z"/><path fill="#263238" d="M722.8 698.66c-3.15 1.2-14.36 5.74-16.88 7.12v-1.59c2.82-1.66 5.64-3.3 8.47-4.94 3.03-1.76 5.04-2.39 7.87-4.47.14-.1.06-.38-.13-.31-3.12 1.3-4.77 2.28-7.67 3.98a460.67 460.67 0 0 0-8.54 5.16c-.01-4.06-.02-8.13-.05-12.19a97.14 97.14 0 0 0 13.3-6.76c.15-.09.05-.35-.12-.28a97.2 97.2 0 0 0-13.19 6.5c-.01-2.11-.02-4.22-.05-6.34-.12-10.88-.14-21.77-.41-32.65 2.77-1.4 5.62-2.63 8.39-4.03.18-.09.05-.41-.14-.33-2.81 1.1-5.51 2.4-8.27 3.61-.15-5.61-.36-11.22-.71-16.83-.01-.18-.28-.19-.29 0a627.26 627.26 0 0 0-.23 31.28c-2.87-2.29-5.92-4.31-8.84-6.53-.11-.09-.22.11-.11.19 3.05 2.32 5.91 4.89 8.97 7.21l.02 1.77c-3.11-1.42-6.26-2.74-9.41-4.09-.25-.11-.47.25-.21.37 3.2 1.54 6.39 3.1 9.63 4.55l.23 15.5c.12 9.02.32 18.04.51 27.06a691.5 691.5 0 0 0-17.74-8.66c-.23-.11-.42.21-.2.34 5.8 3.32 11.82 6.34 17.95 9.02.16 7.49.31 24.7.41 32.2 0 .45.71.46.71 0-.1-9.56-.12-28.83-.15-38.39 3.1-.76 14.32-5.55 17.1-6.92.29-.14.08-.64-.22-.52Z"/><path fill="#ffc727" d="m715.24 656.63-4.03-1.93-5.94-51.88 9.97 53.81zm10.03 54.04-7.99-3.08-5.78-50.43a33 33 0 0 0 4.37 2.83s9.4 50.68 9.4 50.68Zm6.33 34.16h-10.06l-3.95-34.44a33.66 33.66 0 0 0 8.23 3.31l.97 5.17-7.84-1.78a28.94 28.94 0 0 0 8.37 4.65l4.28 23.09Z" opacity=".2"/><path fill="#37474f" d="M947.57 741.32h-52.68l2.57-13.86c11.04-.72 19.65-8.2 19.65-8.2l-19.21 5.86 7.09-38.21c4.88-2.31 7.99-5.02 7.99-5.02l-7.49 2.28 1.16-6.23c6.56-2.35 11.07-6.18 11.35-6.41l-10.76 3.27 6.71-36.19c2.56-1.58 4.06-2.89 4.06-2.89l-3.74 1.14 6.97-37.56 9.98 53.81-8.67-4.14a32.35 32.35 0 0 0 9.29 7.51s9.4 50.67 9.4 50.67l-14.58-5.62a31.99 31.99 0 0 0 15.14 8.65l.97 5.18-7.84-1.78a28.94 28.94 0 0 0 8.37 4.65l4.28 23.09Z"/><path fill="#263238" d="M938.77 695.15c-3.15 1.2-14.36 5.74-16.88 7.12v-1.59c2.82-1.66 5.64-3.3 8.47-4.94 3.03-1.76 5.04-2.39 7.87-4.47.14-.1.06-.38-.13-.31-3.12 1.3-4.77 2.28-7.67 3.98a460.67 460.67 0 0 0-8.54 5.16c-.01-4.06-.02-8.13-.05-12.19a97.14 97.14 0 0 0 13.3-6.76c.15-.09.05-.35-.12-.28a97.2 97.2 0 0 0-13.19 6.5c-.01-2.11-.02-4.22-.05-6.34-.12-10.88-.14-21.77-.41-32.65 2.77-1.4 5.62-2.63 8.39-4.03.18-.09.05-.41-.14-.33-2.81 1.1-5.51 2.4-8.27 3.61-.15-5.61-.36-11.22-.71-16.83-.01-.18-.28-.19-.29 0a627.26 627.26 0 0 0-.23 31.28c-2.87-2.29-5.92-4.31-8.84-6.53-.11-.09-.22.11-.11.19 3.05 2.32 5.91 4.89 8.97 7.21l.02 1.77c-3.11-1.42-6.26-2.74-9.41-4.09-.25-.11-.47.25-.21.37 3.2 1.54 6.39 3.1 9.63 4.55l.23 15.5c.12 9.02.32 18.04.51 27.06a691.5 691.5 0 0 0-17.74-8.66c-.23-.11-.42.21-.2.34 5.8 3.32 11.82 6.34 17.95 9.02.16 7.49.31 24.7.41 32.2 0 .45.71.46.71 0-.1-9.56-.12-28.83-.15-38.39 3.1-.76 14.32-5.55 17.1-6.92.29-.14.08-.64-.22-.52Z"/><path fill="#ffc727" d="m931.21 653.12-4.03-1.93-5.94-51.88 9.97 53.81zm10.03 54.04-7.99-3.08-5.78-50.43a33 33 0 0 0 4.37 2.83s9.4 50.68 9.4 50.68Zm6.33 34.16h-10.06l-3.95-34.44a33.66 33.66 0 0 0 8.23 3.31l.97 5.17-7.84-1.78a28.94 28.94 0 0 0 8.37 4.65l4.28 23.09Z" opacity=".2"/><path fill="#ffc727" d="M1920 1080V653.76s-225.06-17.11-264.1-24.6c-39.04-7.49-103.29-25.67-141.83-25.67S1129.31 718.47 770.2 734.81C605.26 742.32.01 720.93.01 720.93V1080h1920Z"/><path fill="#fff" d="M1920 1080V653.76s-225.06-17.11-264.1-24.6c-39.04-7.49-103.29-25.67-141.83-25.67S1129.31 718.47 770.2 734.81C605.26 742.32.01 720.93.01 720.93V1080h1920Z" opacity=".8"/><path fill="#ffc727" d="M1499.22 720.93c-64.12 46.89-253.25 97.16-392.05 118.46C968.36 860.7 0 868.45 0 868.45V1080h1920V720.93h-420.78Z" opacity=".1"/><path fill="#ffc727" d="M1920 653.76V1080h-709.39c0-61.24 572.09-146.39 572.09-227.01 0-66.45-283.48-109.47-283.48-132.05s173.98-21.09 173.98-46.66c0-23.42-120.96-58.55-150.55-70.49 38.94 2.23 96.98 18.43 133.26 25.37 39.03 7.5 264.1 24.6 264.1 24.6Z"/><path fill="#fff" d="M1920 653.76V1080h-709.39c0-61.24 572.09-146.39 572.09-227.01 0-66.45-283.48-109.47-283.48-132.05s173.98-21.09 173.98-46.66c0-23.42-120.96-58.55-150.55-70.49 38.94 2.23 96.98 18.43 133.26 25.37 39.03 7.5 264.1 24.6 264.1 24.6Z" opacity=".95"/><path fill="#fff" d="M1455.49 107.39c4.41-4.66 11.26-3.44 12.14 2.09a4.98 4.98 0 0 1-.43 2.87v.06c-.61 4.81-5.96 8.07-10.23 6.77-4.79-1.46-5.26-7.8-1.48-11.8Z"/><path fill="#c7c7c7" d="M1455.49 107.39c3.36-3.96 10.89-4.36 12.4 1.5a5.17 5.17 0 0 1-.25 3.67l.04-.16c-.45 5.07-6.23 8.85-11.01 7.07-5.1-1.84-4.54-8.84-1.19-12.07Zm0 0c-3.22 3.12-3.53 9.92 1.42 11.38 4.3 1.23 9.27-2.18 9.8-6.57.48-.98.68-2.07.41-3.13-1.09-5.64-8.44-5.46-11.64-1.68Z"/><path fill="#fff" d="M1830.45 285.29c4.41-4.66 11.26-3.44 12.14 2.09a4.98 4.98 0 0 1-.43 2.87v.06c-.61 4.81-5.96 8.07-10.23 6.77-4.79-1.46-5.26-7.8-1.48-11.8Z"/><path fill="#c7c7c7" d="M1830.45 285.29c3.36-3.96 10.89-4.36 12.4 1.5a5.17 5.17 0 0 1-.25 3.67l.04-.15c-.45 5.06-6.23 8.85-11.01 7.06-5.1-1.84-4.54-8.84-1.19-12.07Zm0 0c-3.22 3.12-3.53 9.92 1.42 11.38 4.3 1.23 9.26-2.17 9.8-6.57.48-.98.68-2.07.41-3.13-1.09-5.64-8.44-5.46-11.64-1.68Z"/><path fill="#fff" d="M1690.95 487.25c4.41-4.66 11.26-3.44 12.14 2.09a4.98 4.98 0 0 1-.43 2.87v.06c-.61 4.81-5.96 8.07-10.23 6.77-4.79-1.46-5.26-7.8-1.48-11.8Z"/><path fill="#c7c7c7" d="M1690.95 487.25c3.36-3.96 10.89-4.36 12.4 1.5a5.17 5.17 0 0 1-.25 3.67l.04-.15c-.45 5.06-6.23 8.85-11.01 7.06-5.1-1.84-4.54-8.84-1.19-12.07Zm0 0c-3.22 3.12-3.53 9.92 1.42 11.38 4.3 1.23 9.26-2.18 9.8-6.57.48-.98.68-2.07.41-3.13-1.09-5.64-8.44-5.46-11.64-1.68Z"/><path fill="#fff" d="M1078.4 187.33c4.41-4.66 11.26-3.44 12.14 2.09a4.98 4.98 0 0 1-.43 2.87v.06c-.61 4.81-5.96 8.07-10.23 6.77-4.79-1.46-5.26-7.8-1.48-11.8Z"/><path fill="#c7c7c7" d="M1078.4 187.33c3.36-3.96 10.89-4.36 12.4 1.5a5.17 5.17 0 0 1-.25 3.67l.04-.14c-.45 5.05-6.23 8.84-11.01 7.05-5.1-1.84-4.54-8.83-1.19-12.07Zm0 0c-3.22 3.12-3.53 9.92 1.42 11.38 4.3 1.22 9.25-2.17 9.8-6.57.48-.98.68-2.07.41-3.13-1.09-5.64-8.44-5.46-11.64-1.68Z"/><path fill="#fff" d="M1195.32 737.7c4.41-4.66 11.26-3.44 12.14 2.09a4.98 4.98 0 0 1-.43 2.87v.06c-.61 4.81-5.96 8.07-10.23 6.77-4.79-1.46-5.26-7.8-1.48-11.8Z"/><path fill="#c7c7c7" d="M1195.32 737.7c3.36-3.96 10.89-4.36 12.4 1.5a5.17 5.17 0 0 1-.25 3.67l.04-.14c-.45 5.05-6.23 8.84-11.01 7.05-5.1-1.84-4.54-8.83-1.19-12.07Zm0 0c-3.22 3.12-3.53 9.92 1.42 11.38 4.3 1.22 9.25-2.17 9.8-6.57.48-.98.68-2.07.41-3.13-1.09-5.64-8.44-5.46-11.64-1.68Z"/><path fill="#fff" d="M1866.38 616.59c4.41-4.66 11.26-3.44 12.14 2.09a4.98 4.98 0 0 1-.43 2.87v.06c-.61 4.81-5.96 8.07-10.23 6.77-4.79-1.46-5.26-7.8-1.48-11.8Z"/><path fill="#c7c7c7" d="M1866.38 616.59c3.36-3.96 10.89-4.36 12.4 1.5a5.17 5.17 0 0 1-.25 3.67l.04-.14c-.45 5.05-6.24 8.84-11.01 7.05-5.1-1.84-4.54-8.84-1.19-12.07Zm0 0c-3.22 3.12-3.53 9.92 1.42 11.38 4.3 1.22 9.25-2.17 9.8-6.57.48-.98.68-2.07.41-3.13-1.09-5.64-8.44-5.46-11.64-1.68Z"/><path fill="#fff" d="M989.42 609.11c4.41-4.66 11.26-3.44 12.14 2.09a4.98 4.98 0 0 1-.43 2.87v.06c-.61 4.81-5.96 8.07-10.23 6.77-4.79-1.46-5.26-7.8-1.48-11.8Z"/><path fill="#c7c7c7" d="M989.42 609.11c3.36-3.96 10.89-4.36 12.4 1.5a5.17 5.17 0 0 1-.25 3.67l.04-.14c-.45 5.05-6.23 8.84-11.01 7.05-5.1-1.84-4.54-8.83-1.19-12.07Zm0 0c-3.22 3.12-3.53 9.92 1.42 11.38 4.3 1.22 9.25-2.17 9.8-6.57.48-.98.68-2.07.41-3.13-1.09-5.64-8.44-5.46-11.64-1.68Z"/><path fill="#fff" d="M1770.93 401.77c5.6 0 4.08 8.71-1.54 8.71s-4.08-8.71 1.54-8.71Z"/><path fill="#c7c7c7" d="M1770.93 401.77c6.28.24 3.82 9.5-1.54 9.26-1.3-.04-2.65-.55-3.34-1.71-1.8-3.37 1.32-7.67 4.88-7.55Zm0 0a4.8 4.8 0 0 0-4.61 4.07c-.46 2.12.8 4.2 3.08 4.09 4.62.27 7.39-7.85 1.54-8.16Z"/><path fill="#fff" d="M1561.54 246.89c5.6 0 4.08 8.71-1.54 8.71s-4.08-8.71 1.54-8.71Z"/><path fill="#c7c7c7" d="M1561.54 246.89c6.28.24 3.82 9.5-1.54 9.26-1.3-.04-2.65-.55-3.34-1.71-1.8-3.37 1.32-7.67 4.88-7.55Zm0 0a4.8 4.8 0 0 0-4.61 4.07c-.46 2.12.8 4.2 3.08 4.09 4.62.27 7.39-7.85 1.54-8.16Z"/><path fill="#fff" d="M1644.67 460.34c5.6 0 4.08 8.71-1.54 8.71s-4.08-8.71 1.54-8.71Z"/><path fill="#c7c7c7" d="M1644.67 460.34c6.28.24 3.82 9.5-1.54 9.26-1.3-.04-2.65-.55-3.34-1.71-1.8-3.37 1.32-7.67 4.88-7.55Zm0 0a4.8 4.8 0 0 0-4.61 4.07c-.46 2.12.8 4.2 3.08 4.09 4.62.27 7.39-7.85 1.54-8.16Z"/><path fill="#fff" d="M1658.99 704.32c5.6 0 4.08 8.71-1.54 8.71s-4.08-8.71 1.54-8.71Z"/><path fill="#c7c7c7" d="M1658.99 704.32c6.28.24 3.82 9.5-1.54 9.26-1.3-.04-2.65-.55-3.34-1.71-1.8-3.37 1.32-7.67 4.88-7.55Zm0 0a4.8 4.8 0 0 0-4.61 4.07c-.46 2.12.8 4.2 3.08 4.09 4.62.27 7.39-7.85 1.54-8.16Z"/><path fill="#fff" d="M982.44 509.94c5.6 0 4.08 8.71-1.54 8.71s-4.08-8.71 1.54-8.71Z"/><path fill="#c7c7c7" d="M982.44 509.94c6.28.24 3.82 9.5-1.54 9.26-1.3-.04-2.65-.55-3.34-1.71-1.8-3.37 1.32-7.67 4.88-7.55Zm0 0a4.8 4.8 0 0 0-4.61 4.07c-.46 2.12.8 4.2 3.08 4.09 4.62.27 7.39-7.85 1.54-8.16Z"/><path fill="#fff" d="M1501.87 963c5.6 0 4.08 8.71-1.54 8.71s-4.08-8.71 1.54-8.71Z"/><path fill="#c7c7c7" d="M1501.87 963c6.28.24 3.82 9.5-1.54 9.26-1.3-.04-2.65-.55-3.34-1.71-1.8-3.37 1.32-7.67 4.88-7.55Zm0 0a4.8 4.8 0 0 0-4.61 4.07c-.46 2.12.8 4.2 3.08 4.09 4.62.27 7.39-7.85 1.54-8.15Z"/><path fill="#fff" d="M1706.85 36.17c5.6 0 4.08 8.71-1.54 8.71s-4.08-8.71 1.54-8.71Z"/><path fill="#c7c7c7" d="M1706.85 36.17c6.28.24 3.82 9.5-1.54 9.26-1.3-.04-2.65-.55-3.34-1.71-1.8-3.37 1.32-7.67 4.88-7.55Zm0 0a4.8 4.8 0 0 0-4.61 4.07c-.46 2.12.8 4.2 3.08 4.09 4.62.27 7.39-7.85 1.54-8.15Z"/><path fill="#fff" d="M1400.21 157.63c5.6 0 4.08 8.71-1.54 8.71s-4.08-8.71 1.54-8.71Z"/><path fill="#c7c7c7" d="M1400.21 157.63c6.28.24 3.82 9.5-1.54 9.26-1.3-.04-2.65-.55-3.34-1.71-1.8-3.37 1.32-7.67 4.88-7.55Zm0 0a4.8 4.8 0 0 0-4.61 4.07c-.46 2.12.8 4.2 3.08 4.09 4.62.27 7.39-7.85 1.54-8.15Z"/><path fill="#fff" d="M1253.89 150.77c5.6 0 4.08 8.71-1.54 8.71s-4.08-8.71 1.54-8.71Z"/><path fill="#c7c7c7" d="M1253.89 150.77c6.28.24 3.82 9.5-1.54 9.26-1.3-.04-2.65-.55-3.34-1.71-1.8-3.37 1.32-7.67 4.88-7.55Zm0 0a4.8 4.8 0 0 0-4.61 4.07c-.46 2.12.8 4.2 3.08 4.09 4.62.27 7.39-7.85 1.54-8.16Z"/><path fill="#fff" d="M1479.04 291.46c5.6 0 4.08 8.71-1.54 8.71s-4.08-8.71 1.54-8.71Z"/><path fill="#c7c7c7" d="M1479.04 291.46c6.28.24 3.82 9.5-1.54 9.26-1.3-.04-2.65-.55-3.34-1.71-1.8-3.37 1.32-7.67 4.88-7.55Zm0 0a4.8 4.8 0 0 0-4.61 4.07c-.46 2.12.8 4.2 3.08 4.09 4.62.27 7.39-7.85 1.54-8.15Z"/><path fill="#fff" d="M1563.08 921.71c5.6 0 4.08 8.71-1.54 8.71s-4.08-8.71 1.54-8.71Z"/><path fill="#c7c7c7" d="M1563.08 921.71c6.28.24 3.82 9.5-1.54 9.26-1.3-.04-2.65-.55-3.34-1.71-1.8-3.37 1.32-7.67 4.88-7.55Zm0 0a4.8 4.8 0 0 0-4.61 4.07c-.46 2.12.8 4.2 3.08 4.09 4.62.27 7.39-7.85 1.54-8.15Z"/><path fill="#fff" d="M999.6 486.56c3.22 0 2.34 5-.88 5s-2.34-5 .88-5Z"/><path fill="#c7c7c7" d="M999.6 486.56c2.55-.09 2.8 3.26 1.22 4.7-.68.68-1.74.97-2.69.78-3.43-.89-1.39-5.66 1.47-5.48Zm0 0c-2.51-.16-3.83 4.33-.88 4.44 2.48.18 4.17-4.25.88-4.44Z"/><path fill="#fff" d="M1414.51 53.51c3.22 0 2.34 5-.88 5s-2.34-5 .88-5Z"/><path fill="#c7c7c7" d="M1414.51 53.51c2.55-.09 2.8 3.26 1.22 4.7-.68.68-1.74.97-2.69.78-3.43-.89-1.39-5.66 1.47-5.48Zm0 0c-2.51-.15-3.83 4.33-.88 4.44 2.48.18 4.17-4.25.88-4.44Z"/><path fill="#fff" d="M1165.48 109.5c3.22 0 2.34 5-.88 5s-2.34-5 .88-5Z"/><path fill="#c7c7c7" d="M1165.48 109.5c2.55-.09 2.8 3.26 1.22 4.7-.68.68-1.74.97-2.69.78-3.43-.89-1.39-5.66 1.47-5.48Zm0 0c-2.51-.15-3.83 4.33-.88 4.44 2.48.18 4.17-4.25.88-4.44Z"/><path fill="#fff" d="M1801.12 674.42c3.22 0 2.34 5-.88 5s-2.34-5 .88-5Z"/><path fill="#c7c7c7" d="M1801.12 674.42c2.55-.09 2.8 3.26 1.22 4.7-.68.68-1.74.97-2.69.78-3.43-.89-1.39-5.66 1.47-5.48Zm0 0c-2.51-.16-3.83 4.33-.88 4.44 2.48.18 4.17-4.25.88-4.44Z"/><path fill="#fff" d="M1432.83 361.54c3.22 0 2.34 5-.88 5s-2.34-5 .88-5Z"/><path fill="#c7c7c7" d="M1432.83 361.54c2.55-.09 2.8 3.26 1.22 4.7-.68.68-1.74.97-2.69.78-3.43-.89-1.39-5.66 1.47-5.48Zm0 0c-2.51-.16-3.83 4.33-.88 4.44 2.48.18 4.17-4.25.88-4.44Z"/><path fill="#fff" d="M1375.38 457.84c3.22 0 2.34 5-.88 5s-2.34-5 .88-5Z"/><path fill="#c7c7c7" d="M1375.38 457.84c2.55-.09 2.8 3.26 1.22 4.7-.68.68-1.74.97-2.69.78-3.43-.89-1.39-5.66 1.47-5.48Zm0 0c-2.51-.16-3.83 4.33-.88 4.44 2.48.18 4.17-4.25.88-4.44Z"/><path fill="#fff" d="M1853.53 107c3.22 0 2.34 5-.88 5s-2.34-5 .88-5Z"/><path fill="#c7c7c7" d="M1853.53 107c2.55-.09 2.8 3.26 1.22 4.7-.68.68-1.74.97-2.69.78-3.43-.89-1.39-5.66 1.47-5.48Zm0 0c-2.51-.16-3.83 4.33-.88 4.44 2.48.18 4.17-4.25.88-4.44Z"/><path fill="#fff" d="M1636.86 325.93c4.21 0 3.07 6.55-1.15 6.55s-3.07-6.55 1.15-6.55Z"/><path fill="#c7c7c7" d="M1636.86 325.93c3.31-.11 3.57 4.23 1.51 6.05a3.91 3.91 0 0 1-3.4.97c-4.33-1.13-1.78-7.23 1.89-7.02Zm0 0c-3.42-.18-5.16 5.84-1.15 5.99 3.37.22 5.52-5.76 1.15-5.99Z"/><path fill="#fff" d="M1846.31 132.53c4.21 0 3.07 6.55-1.15 6.55s-3.07-6.55 1.15-6.55Z"/><path fill="#c7c7c7" d="M1846.31 132.53c3.31-.11 3.57 4.23 1.51 6.05a3.91 3.91 0 0 1-3.4.97c-4.33-1.13-1.78-7.24 1.89-7.02Zm0 0c-3.42-.18-5.16 5.84-1.15 5.99 3.37.22 5.52-5.76 1.15-5.99Z"/><path fill="#fff" d="M1824.2 558.57c4.21 0 3.07 6.55-1.15 6.55s-3.07-6.55 1.15-6.55Z"/><path fill="#c7c7c7" d="M1824.2 558.57c3.31-.11 3.58 4.22 1.51 6.05a3.91 3.91 0 0 1-3.4.97c-4.33-1.13-1.78-7.23 1.89-7.02Zm0 0c-3.42-.18-5.16 5.84-1.15 5.99 3.37.22 5.52-5.76 1.15-5.99Z"/><path fill="#fff" d="M1324.07 506.91c4.21 0 3.07 6.55-1.15 6.55s-3.07-6.55 1.15-6.55Z"/><path fill="#c7c7c7" d="M1324.07 506.91c3.31-.11 3.58 4.22 1.51 6.05a3.91 3.91 0 0 1-3.4.97c-4.33-1.13-1.78-7.23 1.89-7.02Zm0 0c-3.42-.18-5.16 5.84-1.15 5.99 3.37.22 5.52-5.76 1.15-5.99Z"/><path fill="#fff" d="M1002.2 74.58c4.21 0 3.07 6.55-1.15 6.55s-3.07-6.55 1.15-6.55Z"/><path fill="#c7c7c7" d="M1002.2 74.58c3.31-.11 3.57 4.22 1.51 6.05a3.91 3.91 0 0 1-3.4.97c-4.33-1.13-1.78-7.23 1.89-7.02Zm0 0c-3.42-.18-5.16 5.84-1.15 5.99 3.37.22 5.52-5.76 1.15-5.99Z"/><path fill="#fff" d="M1159.61 440.75c4.21 0 3.07 6.55-1.15 6.55s-3.07-6.55 1.15-6.55Z"/><path fill="#c7c7c7" d="M1159.61 440.75c3.31-.11 3.58 4.22 1.51 6.05a3.91 3.91 0 0 1-3.4.97c-4.33-1.13-1.78-7.23 1.89-7.02Zm0 0c-3.42-.18-5.16 5.84-1.15 5.99 3.37.22 5.52-5.76 1.15-5.99Z"/><path fill="#fff" d="M1127.59 543.61c4.21 0 3.07 6.55-1.15 6.55s-3.07-6.55 1.15-6.55Z"/><path fill="#c7c7c7" d="M1127.59 543.61c3.31-.11 3.57 4.23 1.51 6.05a3.91 3.91 0 0 1-3.4.97c-4.33-1.13-1.78-7.23 1.89-7.02Zm0 0c-3.42-.18-5.16 5.84-1.15 5.99 3.37.22 5.52-5.76 1.15-5.99Z"/><path fill="#fff" d="M506.05 107.39c4.41-4.66 11.26-3.44 12.14 2.09a4.98 4.98 0 0 1-.43 2.87v.06c-.61 4.81-5.96 8.07-10.23 6.77-4.79-1.46-5.26-7.8-1.48-11.8Z"/><path fill="#c7c7c7" d="M506.05 107.39c3.36-3.96 10.89-4.36 12.4 1.5a5.17 5.17 0 0 1-.25 3.67l.04-.16c-.45 5.07-6.23 8.85-11.01 7.07-5.1-1.84-4.54-8.84-1.19-12.07Zm0 0c-3.22 3.12-3.53 9.92 1.42 11.38 4.3 1.23 9.27-2.18 9.8-6.57.48-.98.68-2.07.41-3.13-1.09-5.64-8.44-5.46-11.64-1.68Z"/><path fill="#fff" d="M881.02 285.29c4.41-4.66 11.26-3.44 12.14 2.09a4.98 4.98 0 0 1-.43 2.87v.06c-.61 4.81-5.96 8.07-10.23 6.77-4.79-1.46-5.26-7.8-1.48-11.8Z"/><path fill="#c7c7c7" d="M881.02 285.29c3.36-3.96 10.89-4.36 12.4 1.5a5.17 5.17 0 0 1-.25 3.67l.04-.15c-.45 5.06-6.23 8.85-11.01 7.06-5.1-1.84-4.54-8.84-1.19-12.07Zm0 0c-3.22 3.12-3.53 9.92 1.42 11.38 4.3 1.23 9.26-2.17 9.8-6.57.48-.98.68-2.07.41-3.13-1.09-5.64-8.44-5.46-11.64-1.68Z"/><path fill="#fff" d="M648.19 535.4c4.41-4.66 11.26-3.44 12.14 2.09a4.98 4.98 0 0 1-.43 2.87v.06c-.61 4.81-5.96 8.07-10.23 6.77-4.79-1.46-5.26-7.8-1.48-11.8Z"/><path fill="#c7c7c7" d="M648.19 535.4c3.36-3.96 10.89-4.36 12.4 1.5a5.17 5.17 0 0 1-.25 3.67l.04-.15c-.45 5.06-6.23 8.85-11.01 7.06-5.1-1.84-4.54-8.84-1.19-12.07Zm0 0c-3.22 3.12-3.53 9.92 1.42 11.38 4.3 1.23 9.26-2.18 9.8-6.57.48-.98.68-2.07.41-3.13-1.09-5.64-8.44-5.46-11.64-1.68Z"/><path fill="#fff" d="M143.68 169.22c4.41-4.66 11.26-3.44 12.14 2.09a4.98 4.98 0 0 1-.43 2.87v.06c-.61 4.81-5.96 8.07-10.23 6.77-4.79-1.46-5.26-7.8-1.48-11.8Z"/><path fill="#c7c7c7" d="M143.68 169.22c3.36-3.96 10.89-4.36 12.4 1.5a5.17 5.17 0 0 1-.25 3.67l.04-.14c-.45 5.05-6.24 8.84-11.01 7.05-5.1-1.84-4.54-8.83-1.19-12.07Zm0 0c-3.22 3.12-3.53 9.92 1.42 11.38 4.3 1.22 9.25-2.17 9.8-6.57.48-.98.68-2.07.41-3.13-1.09-5.64-8.44-5.46-11.64-1.68Z"/><path fill="#fff" d="M294.57 751.81c4.41-4.66 11.26-3.44 12.14 2.09a4.98 4.98 0 0 1-.43 2.87v.06c-.61 4.81-5.96 8.07-10.23 6.77-4.79-1.46-5.26-7.8-1.48-11.8Z"/><path fill="#c7c7c7" d="M294.57 751.81c3.36-3.96 10.89-4.36 12.4 1.5a5.17 5.17 0 0 1-.25 3.67l.04-.14c-.45 5.05-6.23 8.84-11.01 7.05-5.1-1.84-4.54-8.83-1.19-12.07Zm0 0c-3.22 3.12-3.53 9.92 1.42 11.38 4.3 1.22 9.25-2.17 9.8-6.57.48-.98.68-2.07.41-3.13-1.09-5.64-8.44-5.46-11.64-1.68Z"/><path fill="#fff" d="M801.87 699.33c4.41-4.66 11.26-3.44 12.14 2.09a4.98 4.98 0 0 1-.43 2.87v.06c-.61 4.81-5.96 8.07-10.23 6.77-4.79-1.46-5.26-7.8-1.48-11.8Z"/><path fill="#c7c7c7" d="M801.87 699.33c3.36-3.96 10.89-4.36 12.4 1.5a5.17 5.17 0 0 1-.25 3.67l.04-.14c-.45 5.05-6.24 8.84-11.01 7.05-5.1-1.84-4.54-8.84-1.19-12.07Zm0 0c-3.22 3.12-3.53 9.92 1.42 11.38 4.3 1.22 9.25-2.17 9.8-6.57.48-.98.68-2.07.41-3.13-1.09-5.64-8.44-5.46-11.64-1.68Z"/><path fill="#fff" d="M76.35 609.11c4.41-4.66 11.26-3.44 12.14 2.09a4.98 4.98 0 0 1-.43 2.87v.06c-.61 4.81-5.96 8.07-10.23 6.77-4.79-1.46-5.26-7.8-1.48-11.8Z"/><path fill="#c7c7c7" d="M76.35 609.11c3.36-3.96 10.89-4.36 12.4 1.5a5.17 5.17 0 0 1-.25 3.67l.04-.14c-.45 5.05-6.23 8.84-11.01 7.05-5.1-1.84-4.54-8.83-1.19-12.07Zm0 0c-3.22 3.12-3.53 9.92 1.42 11.38 4.3 1.22 9.25-2.17 9.8-6.57.48-.98.68-2.07.41-3.13-1.09-5.64-8.44-5.46-11.64-1.68Z"/><path fill="#fff" d="M821.49 401.77c5.6 0 4.08 8.71-1.54 8.71s-4.08-8.71 1.54-8.71Z"/><path fill="#c7c7c7" d="M821.49 401.77c6.28.24 3.82 9.5-1.54 9.26-1.3-.04-2.65-.55-3.34-1.71-1.8-3.37 1.32-7.67 4.88-7.55Zm0 0a4.8 4.8 0 0 0-4.61 4.07c-.46 2.12.8 4.2 3.08 4.09 4.62.27 7.39-7.85 1.54-8.16Z"/><path fill="#fff" d="M633.85 251.24c5.6 0 4.08 8.71-1.54 8.71s-4.08-8.71 1.54-8.71Z"/><path fill="#c7c7c7" d="M633.85 251.24c6.28.24 3.82 9.5-1.54 9.26-1.3-.04-2.65-.55-3.34-1.71-1.8-3.37 1.32-7.67 4.88-7.55Zm0 0a4.8 4.8 0 0 0-4.61 4.07c-.46 2.12.8 4.2 3.08 4.09 4.62.27 7.39-7.85 1.54-8.16Z"/><path fill="#fff" d="M695.24 460.34c5.6 0 4.08 8.71-1.54 8.71s-4.08-8.71 1.54-8.71Z"/><path fill="#c7c7c7" d="M695.24 460.34c6.28.24 3.82 9.5-1.54 9.26-1.3-.04-2.65-.55-3.34-1.71-1.8-3.37 1.32-7.67 4.88-7.55Zm0 0a4.8 4.8 0 0 0-4.61 4.07c-.46 2.12.8 4.2 3.08 4.09 4.62.27 7.39-7.85 1.54-8.16Z"/><path fill="#fff" d="M709.56 704.32c5.6 0 4.08 8.71-1.54 8.71s-4.08-8.71 1.54-8.71Z"/><path fill="#c7c7c7" d="M709.56 704.32c6.28.24 3.82 9.5-1.54 9.26-1.3-.04-2.65-.55-3.34-1.71-1.8-3.37 1.32-7.67 4.88-7.55Zm0 0a4.8 4.8 0 0 0-4.61 4.07c-.46 2.12.8 4.2 3.08 4.09 4.62.27 7.39-7.85 1.54-8.16Z"/><path fill="#fff" d="M33.01 509.94c5.6 0 4.08 8.71-1.54 8.71s-4.08-8.71 1.54-8.71Z"/><path fill="#c7c7c7" d="M33.01 509.94c6.28.24 3.82 9.5-1.54 9.26-1.3-.04-2.65-.55-3.34-1.71-1.8-3.37 1.32-7.67 4.88-7.55Zm0 0a4.8 4.8 0 0 0-4.61 4.07c-.46 2.12.8 4.2 3.08 4.09 4.62.27 7.39-7.85 1.54-8.16Z"/><path fill="#fff" d="M552.44 963c5.6 0 4.08 8.71-1.54 8.71s-4.08-8.71 1.54-8.71Z"/><path fill="#c7c7c7" d="M552.44 963c6.28.24 3.82 9.5-1.54 9.26-1.3-.04-2.65-.55-3.34-1.71-1.8-3.37 1.32-7.67 4.88-7.55Zm0 0a4.8 4.8 0 0 0-4.61 4.07c-.46 2.12.8 4.2 3.08 4.09 4.62.27 7.39-7.85 1.54-8.15Z"/><path fill="#fff" d="M757.42 36.17c5.6 0 4.08 8.71-1.54 8.71s-4.08-8.71 1.54-8.71Z"/><path fill="#c7c7c7" d="M757.42 36.17c6.28.24 3.82 9.5-1.54 9.26-1.3-.04-2.65-.55-3.34-1.71-1.8-3.37 1.32-7.67 4.88-7.55Zm0 0a4.8 4.8 0 0 0-4.61 4.07c-.46 2.12.8 4.2 3.08 4.09 4.62.27 7.39-7.85 1.54-8.15Z"/><path fill="#fff" d="M450.77 157.63c5.6 0 4.08 8.71-1.54 8.71s-4.08-8.71 1.54-8.71Z"/><path fill="#c7c7c7" d="M450.77 157.63c6.28.24 3.82 9.5-1.54 9.26-1.3-.04-2.65-.55-3.34-1.71-1.8-3.37 1.32-7.67 4.88-7.55Zm0 0a4.8 4.8 0 0 0-4.61 4.07c-.46 2.12.8 4.2 3.08 4.09 4.62.27 7.39-7.85 1.54-8.15Z"/><path fill="#fff" d="M304.46 150.77c5.6 0 4.08 8.71-1.54 8.71s-4.08-8.71 1.54-8.71Z"/><path fill="#c7c7c7" d="M304.46 150.77c6.28.24 3.82 9.5-1.54 9.26-1.3-.04-2.65-.55-3.34-1.71-1.8-3.37 1.32-7.67 4.88-7.55Zm0 0a4.8 4.8 0 0 0-4.61 4.07c-.46 2.12.8 4.2 3.08 4.09 4.62.27 7.39-7.85 1.54-8.16Z"/><path fill="#fff" d="M479.32 278.06c5.6 0 4.08 8.71-1.54 8.71s-4.08-8.71 1.54-8.71Z"/><path fill="#c7c7c7" d="M479.32 278.06c6.28.24 3.82 9.5-1.54 9.26-1.3-.04-2.65-.55-3.34-1.71-1.8-3.37 1.32-7.67 4.88-7.55Zm0 0a4.8 4.8 0 0 0-4.61 4.07c-.46 2.12.8 4.2 3.08 4.09 4.62.27 7.39-7.85 1.54-8.15Z"/><path fill="#fff" d="M613.64 921.71c5.6 0 4.08 8.71-1.54 8.71s-4.08-8.71 1.54-8.71Z"/><path fill="#c7c7c7" d="M613.64 921.71c6.28.24 3.82 9.5-1.54 9.26-1.3-.04-2.65-.55-3.34-1.71-1.8-3.37 1.32-7.67 4.88-7.55Zm0 0a4.8 4.8 0 0 0-4.61 4.07c-.46 2.12.8 4.2 3.08 4.09 4.62.27 7.39-7.85 1.54-8.15Z"/><path fill="#fff" d="M50.17 486.56c3.22 0 2.34 5-.88 5s-2.34-5 .88-5Z"/><path fill="#c7c7c7" d="M50.17 486.56c2.55-.09 2.8 3.26 1.22 4.7-.68.68-1.74.97-2.69.78-3.43-.89-1.39-5.66 1.47-5.48Zm0 0c-2.51-.16-3.83 4.33-.88 4.44 2.48.18 4.17-4.25.88-4.44Z"/><path fill="#fff" d="M465.08 53.51c3.22 0 2.34 5-.88 5s-2.34-5 .88-5Z"/><path fill="#c7c7c7" d="M465.08 53.51c2.55-.09 2.8 3.26 1.22 4.7-.68.68-1.74.97-2.69.78-3.43-.89-1.39-5.66 1.47-5.48Zm0 0c-2.51-.15-3.83 4.33-.88 4.44 2.48.18 4.17-4.25.88-4.44Z"/><path fill="#fff" d="M216.05 109.5c3.22 0 2.34 5-.88 5s-2.34-5 .88-5Z"/><path fill="#c7c7c7" d="M216.05 109.5c2.55-.09 2.8 3.26 1.22 4.7-.68.68-1.74.97-2.69.78-3.43-.89-1.39-5.66 1.47-5.48Zm0 0c-2.51-.15-3.83 4.33-.88 4.44 2.48.18 4.17-4.25.88-4.44Z"/><path fill="#fff" d="M851.68 674.42c3.22 0 2.34 5-.88 5s-2.34-5 .88-5Z"/><path fill="#c7c7c7" d="M851.68 674.42c2.55-.09 2.8 3.26 1.22 4.7-.68.68-1.74.97-2.69.78-3.43-.89-1.39-5.66 1.47-5.48Zm0 0c-2.51-.15-3.83 4.33-.88 4.44 2.48.18 4.17-4.25.88-4.44Z"/><path fill="#fff" d="M483.4 361.54c3.22 0 2.34 5-.88 5s-2.34-5 .88-5Z"/><path fill="#c7c7c7" d="M483.4 361.54c2.55-.09 2.8 3.26 1.22 4.7-.68.68-1.74.97-2.69.78-3.43-.89-1.39-5.66 1.47-5.48Zm0 0c-2.51-.16-3.83 4.33-.88 4.44 2.48.18 4.17-4.25.88-4.44Z"/><path fill="#fff" d="M412.82 425.55c3.22 0 2.34 5-.88 5s-2.34-5 .88-5Z"/><path fill="#c7c7c7" d="M412.82 425.55c2.55-.09 2.8 3.26 1.22 4.7-.68.68-1.74.97-2.69.78-3.43-.89-1.39-5.66 1.47-5.48Zm0 0c-2.51-.16-3.83 4.33-.88 4.44 2.48.18 4.17-4.25.88-4.44Z"/><path fill="#fff" d="M524.93 494.31c3.22 0 2.34 5-.88 5s-2.34-5 .88-5Z"/><path fill="#c7c7c7" d="M524.93 494.31c2.55-.09 2.8 3.26 1.22 4.7-.68.68-1.74.97-2.69.78-3.43-.89-1.39-5.66 1.47-5.48Zm0 0c-2.51-.15-3.83 4.33-.88 4.44 2.48.18 4.17-4.25.88-4.44Z"/><path fill="#fff" d="M687.42 325.93c4.21 0 3.07 6.55-1.15 6.55s-3.07-6.55 1.15-6.55Z"/><path fill="#c7c7c7" d="M687.42 325.93c3.31-.11 3.57 4.23 1.51 6.05a3.91 3.91 0 0 1-3.4.97c-4.33-1.13-1.78-7.23 1.89-7.02Zm0 0c-3.42-.18-5.16 5.84-1.15 5.99 3.37.22 5.52-5.76 1.15-5.99Z"/><path fill="#fff" d="M896.88 132.53c4.21 0 3.07 6.55-1.15 6.55s-3.07-6.55 1.15-6.55Z"/><path fill="#c7c7c7" d="M896.88 132.53c3.31-.11 3.57 4.23 1.51 6.05a3.91 3.91 0 0 1-3.4.97c-4.33-1.13-1.78-7.24 1.89-7.02Zm0 0c-3.42-.18-5.16 5.84-1.15 5.99 3.37.22 5.52-5.76 1.15-5.99Z"/><path fill="#fff" d="M874.76 558.57c4.21 0 3.07 6.55-1.15 6.55s-3.07-6.55 1.15-6.55Z"/><path fill="#c7c7c7" d="M874.76 558.57c3.31-.11 3.58 4.22 1.51 6.05a3.91 3.91 0 0 1-3.4.97c-4.33-1.13-1.78-7.23 1.89-7.02Zm0 0c-3.42-.18-5.16 5.84-1.15 5.99 3.37.22 5.52-5.76 1.15-5.99Z"/><path fill="#fff" d="M374.64 506.91c4.21 0 3.07 6.55-1.15 6.55s-3.07-6.55 1.15-6.55Z"/><path fill="#c7c7c7" d="M374.64 506.91c3.31-.11 3.58 4.22 1.51 6.05a3.91 3.91 0 0 1-3.4.97c-4.33-1.13-1.78-7.23 1.89-7.02Zm0 0c-3.42-.18-5.16 5.84-1.15 5.99 3.37.22 5.52-5.76 1.15-5.99Z"/><path fill="#fff" d="M52.76 74.58c4.21 0 3.07 6.55-1.15 6.55s-3.07-6.55 1.15-6.55Z"/><path fill="#c7c7c7" d="M52.76 74.58c3.31-.11 3.57 4.22 1.51 6.05a3.91 3.91 0 0 1-3.4.97c-4.33-1.13-1.78-7.23 1.89-7.02Zm0 0c-3.42-.18-5.16 5.84-1.15 5.99 3.37.22 5.52-5.76 1.15-5.99Z"/><path fill="#fff" d="M210.18 440.75c4.21 0 3.07 6.55-1.15 6.55s-3.07-6.55 1.15-6.55Z"/><path fill="#c7c7c7" d="M210.18 440.75c3.31-.11 3.58 4.22 1.51 6.05a3.91 3.91 0 0 1-3.4.97c-4.33-1.13-1.78-7.23 1.89-7.02Zm0 0c-3.42-.18-5.16 5.84-1.15 5.99 3.37.22 5.52-5.76 1.15-5.99Z"/><path fill="#fff" d="M178.15 527.39c4.21 0 3.07 6.55-1.15 6.55s-3.07-6.55 1.15-6.55Z"/><path fill="#c7c7c7" d="M178.15 527.39c3.31-.11 3.57 4.23 1.51 6.05a3.91 3.91 0 0 1-3.4.97c-4.33-1.13-1.78-7.23 1.89-7.02Zm0 0c-3.42-.18-5.16 5.84-1.15 5.99 3.37.22 5.52-5.76 1.15-5.99Z"/></svg>