<svg xmlns="http://www.w3.org/2000/svg" viewBox="0 0 390.58 385.51"><path d="M293.16,300.16h17.38l-33.89,67.56h-18ZM256.7,282.81,206.32,385.08H316.11L366.3,282.81Z" style="fill:#014694"/><polygon points="133.61 249.03 64.34 385.08 114.74 385.08 136.83 341.68 163.21 341.68 141.33 385.08 190.88 385.08 224.12 319.4 195.81 319.4 244.55 282.81 184.01 282.81 154.42 304.62 184.66 249.03 133.61 249.03" style="fill:#014694"/><polygon points="51.69 282.81 0 385.08 48.47 385.08 100.8 282.81 51.69 282.81" style="fill:#014694"/><path d="M81.07,273.66a44.1,44.1,0,1,0-44.18-44.1,44.14,44.14,0,0,0,44.18,44.1" style="fill:#014694"/><path d="M390.58,385.51V0H.82V2.33C214.91,2.43,388.44,173,388.44,383.39c0,.71,0,1.41,0,2.12Z" style="fill:#014694"/></svg>